<svg width="670" height="596" viewBox="0 0 670 596" fill="none" xmlns="http://www.w3.org/2000/svg">
<path d="M670 455.82H0V456.118H670V455.82Z" fill="#EBEBEB"/>
<path d="M602.866 475H558.485V475.298H602.866V475Z" fill="#EBEBEB"/>
<path d="M443.835 478.242H432.19V478.54H443.835V478.242Z" fill="#EBEBEB"/>
<path d="M557.145 463.938H531.431V464.235H557.145V463.938Z" fill="#EBEBEB"/>
<path d="M128.171 465.94H70.2964V466.238H128.171V465.94Z" fill="#EBEBEB"/>
<path d="M148.593 465.94H140.11V466.238H148.593V465.94Z" fill="#EBEBEB"/>
<path d="M301.701 470.971H176.17V471.269H301.701V470.971Z" fill="#EBEBEB"/>
<path d="M317.58 402.657H58.8394C56.8125 402.654 54.8697 401.936 53.4377 400.659C52.0057 399.383 51.2014 397.654 51.2014 395.851V72.3063C51.2191 70.5136 52.0311 68.7994 53.4612 67.5362C54.8914 66.2729 56.824 65.5626 58.8394 65.5596H317.58C319.609 65.5596 321.555 66.2767 322.99 67.5531C324.425 68.8295 325.231 70.5607 325.231 72.3659V395.851C325.231 397.656 324.425 399.387 322.99 400.664C321.555 401.94 319.609 402.657 317.58 402.657ZM58.8394 65.798C56.9013 65.8011 55.0438 66.4882 53.6746 67.7084C52.3054 68.9286 51.5364 70.5822 51.5364 72.3063V395.851C51.5364 397.575 52.3054 399.229 53.6746 400.449C55.0438 401.669 56.9013 402.356 58.8394 402.359H317.58C319.519 402.356 321.378 401.669 322.75 400.449C324.121 399.23 324.893 397.576 324.896 395.851V72.3063C324.893 70.5811 324.121 68.9276 322.75 67.7077C321.378 66.4878 319.519 65.8011 317.58 65.798H58.8394Z" fill="#EBEBEB"/>
<path d="M607.435 402.657H348.681C346.653 402.654 344.709 401.936 343.275 400.66C341.841 399.384 341.034 397.655 341.03 395.851V72.3063C341.051 70.5125 341.866 68.7983 343.298 67.5354C344.731 66.2725 346.665 65.5626 348.681 65.5596H607.435C609.449 65.5658 611.378 66.2775 612.805 67.5404C614.232 68.8032 615.042 70.5156 615.06 72.3063V395.851C615.06 397.652 614.258 399.379 612.828 400.655C611.399 401.931 609.46 402.651 607.435 402.657ZM348.681 65.798C346.742 65.8011 344.883 66.4878 343.512 67.7077C342.141 68.9276 341.369 70.5811 341.365 72.3063V395.851C341.369 397.576 342.141 399.23 343.512 400.449C344.883 401.669 346.742 402.356 348.681 402.359H607.435C609.375 402.356 611.234 401.669 612.605 400.449C613.976 399.23 614.748 397.576 614.752 395.851V72.3063C614.748 70.5811 613.976 68.9276 612.605 67.7077C611.234 66.4878 609.375 65.8011 607.435 65.798H348.681Z" fill="#EBEBEB"/>
<path d="M592.642 455.892V397.102H562.143V342.592H557.842V373.834H546.117V365.192H524.999V335.273H521.099V298.715H517.964V334.618H510.54V387.793H496.457V334.618H471.037V379.592H444.357V325.082H440.056V356.324H428.331V347.682H407.213V317.763H403.313V281.204H400.178V317.095H392.754V370.282H378.671V317.095H353.264V368.542H336.126V338.623H332.213V302.064H329.077V337.967H321.654V391.142H307.57V337.967H282.164V391.142H269.648V397.102H247.726V342.592H243.424V373.834H231.699V365.192H210.581V335.273H206.668V298.715H203.546V334.618H196.725V331.614H171.306V334.618H157.236V331.614H149.812V295.723H146.676V332.281H142.764V362.2H121.659V370.842H109.92V339.6H105.619V394.11H75.1204V455.892H592.642Z" fill="#F0F0F0"/>
<path d="M211.675 175.191C226.218 162.255 226.218 141.281 211.675 128.344C197.132 115.408 173.554 115.408 159.012 128.344C144.469 141.281 144.469 162.255 159.012 175.191C173.554 188.127 197.132 188.127 211.675 175.191Z" fill="#FAFAFA"/>
<path d="M166.026 151.384C166.026 150.487 165.791 149.603 165.339 148.801C164.887 147.999 164.231 147.303 163.423 146.767C162.614 146.231 161.676 145.87 160.684 145.713C159.691 145.557 158.671 145.609 157.705 145.865C157.994 144.132 157.859 142.365 157.31 140.683C156.761 139.001 155.811 137.444 154.523 136.119C153.236 134.794 151.642 133.732 149.851 133.005C148.059 132.278 146.113 131.903 144.144 131.907C143.294 131.905 142.446 131.977 141.611 132.121C140.261 130.144 138.225 128.612 135.809 127.755C133.394 126.898 130.731 126.764 128.222 127.372C125.713 127.981 123.495 129.299 121.902 131.127C120.31 132.956 119.429 135.196 119.394 137.509H119.26C116.332 137.509 113.523 138.544 111.453 140.386C109.382 142.228 108.219 144.726 108.219 147.331C108.219 149.936 109.382 152.434 111.453 154.276C113.523 156.118 116.332 157.153 119.26 157.153H159.795C161.473 157.1 163.062 156.469 164.225 155.392C165.388 154.315 166.034 152.877 166.026 151.384Z" fill="#F5F5F5"/>
<path d="M573.775 231.164C573.781 230.266 573.55 229.379 573.1 228.575C572.649 227.77 571.992 227.072 571.182 226.536C570.372 225.999 569.431 225.64 568.435 225.488C567.44 225.335 566.419 225.393 565.453 225.657C565.545 225.069 565.59 224.475 565.587 223.881C565.587 222.28 565.232 220.695 564.543 219.216C563.854 217.738 562.844 216.394 561.571 215.263C560.298 214.131 558.787 213.234 557.124 212.623C555.461 212.011 553.678 211.697 551.879 211.699C551.034 211.7 550.191 211.767 549.36 211.901C548.01 209.924 545.973 208.392 543.558 207.535C541.142 206.678 538.479 206.544 535.97 207.153C533.461 207.761 531.243 209.079 529.651 210.908C528.058 212.736 527.178 214.976 527.143 217.289H526.941C524.013 217.289 521.205 218.324 519.134 220.166C517.063 222.008 515.9 224.506 515.9 227.111C515.9 229.716 517.063 232.215 519.134 234.057C521.205 235.899 524.013 236.933 526.941 236.933H567.49C569.175 236.887 570.773 236.259 571.947 235.182C573.12 234.105 573.775 232.664 573.775 231.164Z" fill="#F5F5F5"/>
<path d="M382.074 143.719C382.074 141.304 383.153 138.988 385.073 137.28C386.993 135.572 389.597 134.613 392.312 134.613C393.306 134.614 394.295 134.747 395.246 135.006C395.096 134.078 395.02 133.142 395.019 132.205C395.013 129.364 395.714 126.556 397.07 123.984C398.427 121.412 400.406 119.139 402.866 117.326C405.325 115.514 408.205 114.208 411.299 113.502C414.392 112.795 417.623 112.706 420.76 113.24C422.9 110.118 426.122 107.699 429.941 106.348C433.761 104.996 437.97 104.785 441.936 105.747C445.902 106.709 449.409 108.791 451.929 111.679C454.449 114.568 455.846 118.107 455.908 121.763H456.216C460.851 121.763 465.295 123.4 468.572 126.315C471.849 129.23 473.69 133.184 473.69 137.306C473.69 141.429 471.849 145.383 468.572 148.298C465.295 151.213 460.851 152.85 456.216 152.85H392.017C389.349 152.782 386.816 151.789 384.958 150.083C383.101 148.378 382.066 146.094 382.074 143.719Z" fill="#F5F5F5"/>
<path d="M192.813 242.917C192.813 241.208 193.262 239.523 194.125 237.996C194.987 236.47 196.24 235.144 197.781 234.124C199.323 233.105 201.111 232.421 203.003 232.126C204.896 231.831 206.839 231.934 208.678 232.427C208.501 231.31 208.411 230.182 208.41 229.054C208.41 222.899 211.159 216.996 216.052 212.643C220.945 208.291 227.581 205.846 234.5 205.846C236.114 205.843 237.724 205.974 239.311 206.239C241.868 202.455 245.744 199.517 250.35 197.872C254.956 196.228 260.041 195.966 264.829 197.128C269.618 198.29 273.849 200.811 276.878 204.308C279.908 207.805 281.571 212.087 281.614 216.502H281.99C287.566 216.502 292.913 218.473 296.856 221.98C300.799 225.487 303.014 230.244 303.014 235.205C303.014 240.165 300.799 244.922 296.856 248.429C292.913 251.937 287.566 253.907 281.99 253.907H204.792C201.578 253.829 198.525 252.636 196.286 250.582C194.048 248.529 192.801 245.777 192.813 242.917Z" fill="#F5F5F5"/>
<path d="M247.243 168.644C247.243 167.695 246.82 166.786 246.066 166.115C245.312 165.445 244.29 165.068 243.223 165.068C242.833 165.066 242.445 165.114 242.071 165.211C242.129 164.848 242.161 164.481 242.165 164.114C242.165 163.119 241.944 162.133 241.516 161.213C241.088 160.293 240.46 159.458 239.669 158.754C238.877 158.05 237.938 157.491 236.904 157.11C235.87 156.729 234.762 156.533 233.642 156.533C233.112 156.534 232.583 156.578 232.061 156.664C231.225 155.433 229.96 154.477 228.458 153.943C226.956 153.408 225.299 153.324 223.738 153.703C222.178 154.082 220.799 154.903 219.81 156.042C218.821 157.18 218.277 158.575 218.259 160.014H218.125C216.306 160.014 214.561 160.657 213.274 161.801C211.987 162.946 211.264 164.498 211.264 166.117C211.264 167.735 211.987 169.288 213.274 170.432C214.561 171.577 216.306 172.22 218.125 172.22H243.331C244.378 172.195 245.373 171.807 246.104 171.139C246.835 170.471 247.244 169.576 247.243 168.644Z" fill="#F5F5F5"/>
<path d="M100.688 277.354C100.686 276.796 100.832 276.246 101.112 275.747C101.393 275.248 101.801 274.814 102.304 274.481C102.806 274.147 103.39 273.923 104.007 273.825C104.625 273.728 105.259 273.761 105.86 273.921C105.802 273.558 105.77 273.191 105.766 272.824C105.766 270.814 106.664 268.885 108.262 267.464C109.861 266.042 112.028 265.243 114.289 265.243C114.819 265.244 115.348 265.288 115.87 265.374C116.706 264.143 117.971 263.187 119.473 262.653C120.975 262.118 122.632 262.034 124.193 262.413C125.753 262.792 127.132 263.613 128.121 264.752C129.11 265.89 129.654 267.285 129.672 268.724H129.792C130.72 268.687 131.646 268.818 132.515 269.109C133.384 269.399 134.177 269.844 134.848 270.414C135.519 270.985 136.053 271.671 136.417 272.43C136.782 273.19 136.97 274.007 136.97 274.833C136.97 275.659 136.782 276.476 136.417 277.235C136.053 277.994 135.519 278.68 134.848 279.251C134.177 279.822 133.384 280.266 132.515 280.557C131.646 280.847 130.72 280.978 129.792 280.942H104.6C103.551 280.917 102.553 280.528 101.822 279.857C101.091 279.186 100.684 278.288 100.688 277.354Z" fill="#F5F5F5"/>
<path d="M477.884 289.035C477.883 288.478 478.029 287.927 478.309 287.428C478.59 286.929 478.998 286.496 479.5 286.162C480.003 285.829 480.586 285.604 481.204 285.507C481.821 285.41 482.456 285.443 483.057 285.603C482.998 285.239 482.967 284.873 482.963 284.506C482.963 283.51 483.183 282.525 483.612 281.605C484.04 280.685 484.668 279.849 485.459 279.145C486.25 278.441 487.19 277.883 488.224 277.502C489.258 277.121 490.366 276.925 491.485 276.925C492.016 276.926 492.545 276.97 493.066 277.056C493.903 275.824 495.168 274.869 496.67 274.334C498.172 273.8 499.829 273.716 501.389 274.095C502.95 274.473 504.329 275.294 505.318 276.433C506.307 277.572 506.851 278.967 506.869 280.405H506.989C507.916 280.369 508.843 280.5 509.711 280.791C510.58 281.081 511.374 281.525 512.045 282.096C512.716 282.667 513.249 283.353 513.614 284.112C513.979 284.871 514.167 285.689 514.167 286.514C514.167 287.34 513.979 288.157 513.614 288.917C513.249 289.676 512.716 290.362 512.045 290.933C511.374 291.504 510.58 291.948 509.711 292.238C508.843 292.529 507.916 292.66 506.989 292.623H481.797C480.747 292.599 479.75 292.209 479.019 291.539C478.288 290.868 477.88 289.97 477.884 289.035Z" fill="#F5F5F5"/>
<path d="M554.291 436.51L547.296 392.096L540.328 404.946L473.382 316.619L362.497 285.103L325.138 213.153L155.266 109.092L155.721 140.704L128.385 155.341L279.042 233.692L323.409 306.153L453.362 343.058L520.63 419.381L506.145 423.196L554.291 436.51Z" fill="#E0E0E0"/>
<path d="M335 509.652C478.491 509.652 594.813 503.611 594.813 496.158C594.813 488.706 478.491 482.665 335 482.665C191.51 482.665 75.1875 488.706 75.1875 496.158C75.1875 503.611 191.51 509.652 335 509.652Z" fill="#F5F5F5"/>
<path d="M500.557 467.622C500.557 467.622 506.922 455.273 499.646 443.091C492.369 430.908 490.266 428.048 494.902 425.544C499.538 423.041 501.669 435.295 501.669 435.295C503.962 429.762 504.196 423.72 502.339 418.059C499.123 409.25 497.1 394.898 501.508 393.36C505.917 391.823 502.339 411.24 506.171 417.892C508.115 413.236 509.372 408.376 509.91 403.433C510.433 396.352 509.615 385.052 513.086 382.156C516.556 379.259 518.794 381.262 515.377 396.889C513.323 406.22 512.189 415.692 511.987 425.199C511.987 425.199 519.531 404.708 524.61 404.112C529.688 403.516 529.675 410.144 525.333 415.901C520.992 421.659 512.617 431.969 511.25 437.274C511.25 437.274 519.545 421.849 526.995 426.546C534.445 431.242 520.509 440.576 514.292 443.949C508.074 447.322 503.759 468.456 503.759 468.456L500.557 467.622Z" fill="#FF2333"/>
<path opacity="0.2" d="M500.557 467.622C500.557 467.622 506.922 455.273 499.646 443.091C492.369 430.908 490.266 428.048 494.902 425.544C499.538 423.041 501.669 435.295 501.669 435.295C503.962 429.762 504.196 423.72 502.339 418.059C499.123 409.25 497.1 394.898 501.508 393.36C505.917 391.823 502.339 411.24 506.171 417.892C508.115 413.236 509.372 408.376 509.91 403.433C510.433 396.352 509.615 385.052 513.086 382.156C516.556 379.259 518.794 381.262 515.377 396.889C513.323 406.22 512.189 415.692 511.987 425.199C511.987 425.199 519.531 404.708 524.61 404.112C529.688 403.516 529.675 410.144 525.333 415.901C520.992 421.659 512.617 431.969 511.25 437.274C511.25 437.274 519.545 421.849 526.995 426.546C534.445 431.242 520.509 440.576 514.292 443.949C508.074 447.322 503.759 468.456 503.759 468.456L500.557 467.622Z" fill="black"/>
<path d="M505.582 472.688C505.582 472.688 499.378 460.255 506.815 448.169C514.252 436.082 516.396 433.245 511.8 430.694C507.203 428.143 504.899 440.349 504.899 440.349C502.678 434.794 502.523 428.752 504.456 423.113C507.806 414.34 510.017 400.012 505.636 398.414C501.254 396.817 504.55 416.294 500.637 422.886C498.773 418.205 497.597 413.329 497.14 408.38C496.711 401.299 497.689 390.011 494.246 387.067C490.802 384.122 488.551 386.101 491.767 401.764C493.692 411.117 494.697 420.601 494.768 430.11C494.768 430.11 487.438 409.524 482.4 408.856C477.362 408.189 477.254 414.816 481.516 420.633C485.777 426.45 494.004 436.868 495.304 442.185C495.304 442.185 487.264 426.689 479.707 431.29C472.149 435.891 486.005 445.403 492.169 448.86C498.333 452.317 502.379 473.451 502.379 473.451L505.582 472.688Z" fill="#FF2333"/>
<path d="M476.986 463.819H528.201L524.047 496.421H481.14L476.986 463.819Z" fill="#263238"/>
<path d="M413.256 234.907C421.725 241.07 432.565 249.95 441.61 255.171L441.798 255.278C441.798 255.278 442.012 255.481 442.763 255.445C449.543 254.158 456.042 248.794 461.724 244.717C462.331 244.2 463.131 243.898 463.972 243.871C464.812 243.843 465.635 244.091 466.283 244.568C466.931 245.045 467.36 245.717 467.488 246.456C467.616 247.196 467.434 247.951 466.977 248.579C463.666 253.278 459.568 257.499 454.823 261.095C452.052 263.245 448.794 264.839 445.269 265.768C442.257 266.515 439.045 266.296 436.197 265.148L434.736 264.481C423.453 258.89 413.779 251.631 404.144 244.121C397.632 238.59 406.234 229.889 413.229 234.931L413.256 234.907Z" fill="#EBC0BB"/>
<path d="M412.318 252.942C414.992 253.996 417.58 255.215 420.063 256.59C426.442 259.951 433.865 264.29 433.865 264.29L439.949 252.74C428.304 242.107 410.831 233.739 410.831 233.739C410.831 233.739 410.147 237.315 409.839 241.308C409.437 246.291 409.611 252.06 412.318 252.942Z" fill="#FF2333"/>
<path d="M432.994 264.099L439.949 250.713L443.433 255.159L436.304 266.268L432.994 264.099Z" fill="#FF2333"/>
<path opacity="0.6" d="M432.994 264.099L439.949 250.713L443.433 255.159L436.304 266.268L432.994 264.099Z" fill="white"/>
<path opacity="0.2" d="M412.318 250.379C414.975 251.28 417.562 252.335 420.063 253.538C418.629 248.19 415.383 243.364 410.764 239.711C410.443 239.889 410.134 240.084 409.839 240.295C409.437 244.61 409.611 249.616 412.318 250.379Z" fill="black"/>
<path d="M377.88 297.07C377.88 297.07 378.523 306.749 383.83 323.699C387.158 334.19 391.208 344.488 395.957 354.536C398.637 360.21 401.692 366.218 405.122 372.56C406.704 375.444 408.379 378.377 410.147 381.38C412.184 432.732 444.572 484.929 444.572 484.929C446.368 485.752 452.612 484.846 452.612 483.225C447.815 476.454 438.381 410.668 432.298 379.461C431.922 375.218 431.373 370.676 430.703 365.98C428.921 353.392 426.294 339.684 423.735 327.633C419.715 308.656 415.883 293.78 415.883 293.78L405.163 294.698L377.88 297.07Z" fill="#EEC1BB"/>
<path d="M365.123 368.149C366.017 373.656 367.129 379.561 368.46 385.862C356.882 420.204 380.681 487.182 380.681 487.182C384.701 487.886 388.265 487.421 390.061 486.229C385.572 466.036 388.801 413.517 392.285 382.155C392.593 379.318 392.982 376.195 393.411 372.834C394.134 367.184 394.992 360.914 395.903 354.501C397.431 343.713 399.159 332.354 400.714 322.317C402.617 310.147 404.278 299.86 405.122 294.686C405.498 292.41 405.699 291.11 405.699 291.11L372.292 294.329C372.292 294.329 363.797 302.804 362.51 329.266C362.065 342.271 362.939 355.285 365.123 368.149Z" fill="#EEC1BB"/>
<path opacity="0.2" d="M365.123 368.149C374.261 370.902 383.787 372.507 393.424 372.917C394.148 367.267 395.005 360.997 395.916 354.584C398.596 360.258 401.652 366.265 405.082 372.607C414.008 371.873 422.69 369.611 430.649 365.944C428.867 353.356 426.241 339.648 423.681 327.597C420.142 325.755 416.318 324.385 412.331 323.532C408.533 322.737 404.643 322.337 400.74 322.34C395.058 322.311 389.386 322.77 383.803 323.711C376.515 324.911 369.388 326.785 362.537 329.301C362.085 342.293 362.95 355.295 365.123 368.149Z" fill="black"/>
<path d="M364.936 234.621C364.936 234.621 366.423 239.532 368.031 247.733C368.446 249.76 368.862 252.012 369.25 254.42C369.532 256.173 369.8 257.996 370.068 259.927C370.363 262.109 370.644 264.409 370.899 266.781C371.879 275.892 372.251 285.047 372.011 294.197H416.003C416.003 294.197 422.944 248.425 411.487 233.668C411.487 233.763 388.935 224.31 364.936 234.621Z" fill="#FF2333"/>
<path opacity="0.2" d="M368.031 247.781C368.446 249.807 368.862 252.06 369.25 254.468C369.532 256.22 369.8 258.044 370.068 259.975C371.966 254.128 371.92 247.918 369.934 242.095L368.031 247.781Z" fill="black"/>
<path d="M387.689 227.111C373.887 227.111 372.158 237.208 372.158 237.208L378.604 234.74L397.565 246.016L402.214 234.633L408.057 235.598C408.057 235.598 399.668 227.123 387.689 227.111Z" fill="#FF2333"/>
<path opacity="0.6" d="M387.689 227.111C373.887 227.111 372.158 237.208 372.158 237.208L378.604 234.74L397.565 246.016L402.214 234.633L408.057 235.598C408.057 235.598 399.668 227.123 387.689 227.111Z" fill="white"/>
<path d="M379.14 232.702L397.029 244.622C397.029 244.526 399.802 232.702 399.802 232.702C395.581 231.879 393.853 230.056 393.397 227.862C393.152 226.068 393.362 224.247 394.014 222.534L384.111 215.561L381.431 213.689C382.677 219.125 383.843 229.078 379.14 232.702Z" fill="#EEC1BB"/>
<path opacity="0.2" d="M384.031 219.579C384.406 223 389.123 226.564 393.411 227.863C393.165 226.068 393.376 224.247 394.027 222.535L384.125 215.562C383.893 216.891 383.861 218.242 384.031 219.579Z" fill="black"/>
<path d="M413.403 201.591L412.465 201.293L415.507 193.819C415.077 193.427 414.606 193.072 414.1 192.758L414.676 192.031C415.359 192.436 415.969 192.931 416.485 193.497L416.619 193.676L413.403 201.591Z" fill="#FF2333"/>
<path d="M411.38 210.221C411.38 210.221 420.117 194.403 402.55 185.129C384.982 175.855 372.266 195.225 374.034 204.94C374.785 209.124 376.554 214.226 381.083 216.741C382.905 217.742 383.039 213.165 383.039 213.165C383.039 213.165 400.111 218.541 411.38 210.221Z" fill="#263238"/>
<path d="M382.342 199.708C380.774 209.327 379.89 213.356 384.031 219.447C390.248 228.614 403.541 228.805 408.231 219.948C412.439 211.962 414.288 197.586 404.961 191.411C403.01 190.027 400.677 189.132 398.206 188.82C395.734 188.508 393.214 188.789 390.906 189.636C388.598 190.482 386.587 191.863 385.081 193.634C383.575 195.405 382.63 197.502 382.342 199.708Z" fill="#EEC1BB"/>
<path d="M393.585 195.833C385.545 200.601 394.174 211.46 382.865 207.539C371.555 203.617 381.753 190.564 389.846 189.361C397.94 188.157 393.585 195.833 393.585 195.833Z" fill="#263238"/>
<path d="M405.203 209.339C405.58 211.349 406.246 213.309 407.186 215.168C406.674 215.356 406.121 215.438 405.568 215.407C405.015 215.376 404.478 215.233 403.997 214.989L405.203 209.339Z" fill="#D4827D"/>
<path d="M402 200.256C401.931 200.248 401.861 200.252 401.795 200.268C401.728 200.285 401.665 200.313 401.611 200.352C401.116 200.728 400.524 200.988 399.888 201.111C399.252 201.234 398.592 201.215 397.967 201.055C397.902 201.035 397.834 201.026 397.766 201.031C397.699 201.035 397.632 201.052 397.572 201.079C397.512 201.107 397.459 201.146 397.416 201.193C397.373 201.24 397.342 201.295 397.323 201.353C397.288 201.476 397.306 201.607 397.373 201.719C397.439 201.831 397.551 201.917 397.685 201.961C398.471 202.177 399.306 202.213 400.112 202.065C400.918 201.917 401.669 201.59 402.295 201.114C402.393 201.025 402.448 200.906 402.448 200.781C402.448 200.656 402.393 200.536 402.295 200.447C402.222 200.357 402.119 200.29 402 200.256Z" fill="#263238"/>
<path d="M409.451 201.448C409.325 201.405 409.187 201.405 409.062 201.448C408.938 201.508 408.846 201.61 408.806 201.73C408.766 201.851 408.781 201.981 408.847 202.091C409.2 202.791 409.729 203.409 410.394 203.897C411.059 204.384 411.841 204.729 412.68 204.904C412.748 204.915 412.818 204.912 412.885 204.896C412.952 204.881 413.015 204.853 413.069 204.815C413.123 204.777 413.168 204.729 413.2 204.675C413.232 204.62 413.251 204.561 413.256 204.499C413.263 204.373 413.219 204.249 413.134 204.149C413.048 204.049 412.925 203.979 412.787 203.951C412.124 203.806 411.507 203.528 410.984 203.137C410.461 202.747 410.047 202.254 409.772 201.698C409.705 201.581 409.59 201.491 409.451 201.448Z" fill="#263238"/>
<path d="M398.342 191.721C398.342 191.721 393.411 199.123 386.041 200.887C378.671 202.651 378.161 199.433 378.161 199.433C378.161 199.433 378.711 190.016 388.426 188.061C388.426 188.061 389.86 185.272 398.315 185.904C406.77 186.535 416.526 192.734 413.283 201.65C411.45 200.513 409.335 199.789 407.119 199.54C406.267 196.471 404.197 193.778 401.29 191.959C403.234 193.975 404.445 196.469 404.76 199.111C404.76 199.111 402.858 193.652 398.342 191.721Z" fill="#263238"/>
<path d="M400.231 206.752L402.429 206.681C402.429 206.681 401.049 207.932 400.231 206.752Z" fill="#263238"/>
<path d="M400.231 206.752C399.685 207.133 399.019 207.355 398.325 207.384C397.631 207.414 396.944 207.252 396.359 206.919C396.359 206.919 398.275 208.325 399.494 208.111C399.858 208.058 400.202 207.93 400.5 207.738C400.798 207.545 401.041 207.293 401.209 207.002L400.231 206.752Z" fill="#263238"/>
<path d="M409.156 207.98L411.34 207.908C411.34 207.908 409.96 209.16 409.156 207.98Z" fill="#263238"/>
<path d="M409.156 207.979C409.156 207.979 408.566 209.171 406.234 208.111C406.234 208.111 407.186 209.553 408.405 209.386C408.768 209.333 409.113 209.205 409.411 209.013C409.709 208.82 409.952 208.569 410.12 208.277L409.156 207.979Z" fill="#263238"/>
<path d="M402.228 218.863C402.15 218.865 402.073 218.842 402.012 218.798C401.951 218.754 401.909 218.693 401.893 218.625C401.893 218.625 401.303 216.086 397.23 214.501C397.189 214.485 397.152 214.462 397.122 214.434C397.091 214.406 397.067 214.373 397.051 214.336C397.034 214.3 397.027 214.261 397.027 214.221C397.028 214.182 397.038 214.143 397.056 214.107C397.094 214.036 397.16 213.981 397.242 213.952C397.324 213.923 397.416 213.923 397.498 213.952C401.92 215.681 402.536 218.398 402.55 218.518C402.565 218.595 402.546 218.675 402.496 218.74C402.445 218.804 402.368 218.849 402.282 218.863H402.228Z" fill="#263238"/>
<path d="M398.154 190.72C395.193 190.72 392.942 189.647 392.942 188.229C392.942 186.81 395.193 185.726 398.154 185.726C401.116 185.726 403.367 186.798 403.367 188.229C403.367 189.659 401.129 190.72 398.154 190.72ZM398.154 186.62C395.675 186.62 393.947 187.466 393.947 188.229C393.947 188.992 395.675 189.826 398.154 189.826C400.633 189.826 402.362 188.98 402.362 188.229C402.362 187.478 400.66 186.643 398.154 186.643V186.62Z" fill="#FF2333"/>
<path d="M412.72 193.497C411.39 193.442 410.098 193.085 408.968 192.46C406.395 191.149 405.055 189.218 405.859 187.978C406.663 186.786 409.196 186.786 411.769 188.133C414.341 189.48 415.681 191.387 414.877 192.615C414.641 192.921 414.315 193.165 413.935 193.32C413.556 193.476 413.136 193.537 412.72 193.497ZM406.73 188.431C406.301 189.087 407.32 190.589 409.41 191.685C411.501 192.782 413.524 192.877 413.953 192.174C414.382 191.471 413.363 190.016 411.273 188.908C409.182 187.799 407.159 187.775 406.73 188.431Z" fill="#FF2333"/>
<path d="M405.685 188.992C405.325 188.585 404.81 188.31 404.238 188.217C404.047 188.208 403.856 188.235 403.679 188.296C403.501 188.358 403.339 188.453 403.206 188.575L402.523 187.919C402.757 187.712 403.039 187.552 403.348 187.449C403.658 187.346 403.989 187.303 404.318 187.323C405.166 187.445 405.933 187.84 406.476 188.432L405.685 188.992Z" fill="#FF2333"/>
<path d="M383.736 205.751L382.798 205.441L389.391 189.087L389.498 189.004C390.694 188.405 392.001 188.001 393.357 187.812L393.545 188.694C392.394 188.857 391.278 189.175 390.235 189.635L383.736 205.751Z" fill="#FF2333"/>
<path d="M378.014 208.123C378.123 209.047 378.448 209.94 378.97 210.745C379.492 211.55 380.198 212.249 381.043 212.795C383.187 214.071 385.143 211.973 385.277 209.326C385.398 206.942 384.433 203.366 381.914 203.235C379.394 203.104 377.639 205.643 378.014 208.123Z" fill="#EEC1BB"/>
<path d="M379.85 495.991H381.712L382.235 493.941L388.386 496.42H404.01C404.01 496.42 406.489 494.191 399.052 492.427C398.687 492.339 398.332 492.219 397.993 492.069C394.04 490.413 388.386 484.834 388.386 484.834H379.823C379.565 485.186 379.332 485.553 379.126 485.931C378.188 487.599 376.54 491.104 379.85 495.991Z" fill="#263238"/>
<path d="M379.126 485.93C380.252 484.81 385.397 489.733 389.176 491.414C392.54 492.904 396.318 493.559 397.993 492.045C394.04 490.389 387.796 483.165 387.796 483.165H380.908C380.908 483.165 379.528 485.215 379.126 485.93Z" fill="#FFC2BC"/>
<path d="M444.88 495.991H446.743L447.252 493.941L453.416 496.42H469C469 496.42 471.492 494.191 464.055 492.427C463.69 492.341 463.335 492.221 462.997 492.069C458.977 490.413 453.389 484.834 453.389 484.834H444.88C444.622 485.186 444.39 485.553 444.183 485.931C443.232 487.599 441.61 491.104 444.88 495.991Z" fill="#263238"/>
<path d="M444.17 485.93C445.296 484.81 450.441 489.733 454.207 491.414C457.583 492.904 461.362 493.559 463.037 492.045C459.017 490.389 452.84 483.165 452.84 483.165H445.952C445.952 483.165 444.572 485.215 444.17 485.93Z" fill="#FFC2BC"/>
<path d="M416.432 291.146H372.078L370.885 296.223C370.885 296.223 354.591 316.285 362.845 366.313C362.845 366.313 398.529 369.972 432.137 363.56C432.137 363.56 424.592 312.172 416.7 295.401L416.432 291.146Z" fill="#263238"/>
<path d="M385.304 295.509H370.416L371.314 291.742H385.304V295.509Z" fill="#263238"/>
<path d="M412.332 291.742H416.794L417.169 295.509H412.332V291.742Z" fill="#263238"/>
<path d="M410.858 291.742H386.751V295.521H410.858V291.742Z" fill="#263238"/>
<path opacity="0.6" d="M385.304 295.509H370.416L371.314 291.742H385.304V295.509Z" fill="white"/>
<path opacity="0.6" d="M412.332 291.742H416.794L417.169 295.509H412.332V291.742Z" fill="white"/>
<path opacity="0.6" d="M410.858 291.742H386.751V295.521H410.858V291.742Z" fill="white"/>
<path d="M397.444 295.795H404.144C404.544 295.795 404.868 295.507 404.868 295.151V292.088C404.868 291.732 404.544 291.444 404.144 291.444H397.444C397.044 291.444 396.72 291.732 396.72 292.088V295.151C396.72 295.507 397.044 295.795 397.444 295.795Z" fill="white"/>
<path d="M474.668 238.209L474.843 241.225C474.871 241.782 474.752 242.337 474.496 242.846C474.241 243.356 473.854 243.804 473.369 244.157L468.692 247.471C467.776 248.125 466.697 248.575 465.545 248.782C464.393 248.99 463.203 248.949 462.072 248.663L460.652 248.305C459.969 243.323 463.332 237.482 463.332 237.482L464.082 235.73C464.225 235.364 464.448 235.027 464.738 234.739C465.028 234.451 465.38 234.217 465.772 234.05C466.165 233.884 466.591 233.789 467.026 233.77C467.46 233.751 467.894 233.81 468.303 233.942L472.243 235.241C472.928 235.472 473.522 235.876 473.953 236.403C474.384 236.93 474.633 237.558 474.668 238.209Z" fill="#EEC1BB"/>
<path d="M368.138 248.317C362.229 253.979 355.221 260.761 349.472 266.554L350.169 265.565C350.303 265.267 350.249 265.1 350.169 265.184C350.33 268.593 352.849 271.835 354.926 274.994C357.981 279.368 361.626 283.719 365.07 287.855C365.561 288.447 365.795 289.177 365.73 289.911C365.664 290.644 365.302 291.332 364.712 291.847C364.121 292.362 363.342 292.67 362.516 292.714C361.69 292.758 360.875 292.536 360.219 292.087C357.686 290.335 355.408 288.511 353.103 286.58C348.289 282.65 344.133 278.126 340.762 273.146C338.377 269.379 336.38 263.908 339.65 259.736C345.211 252.556 351.49 245.838 358.41 239.663C365.016 234.359 374.101 242.44 368.138 248.317Z" fill="#EBC0BB"/>
<path d="M364.936 234.609C364.936 234.609 354.953 239.21 341.204 256.28L352.125 264.207L368.782 251.75C370.455 248.249 371.021 244.407 370.416 240.641C369.224 235.038 364.936 234.609 364.936 234.609Z" fill="#FF2333"/>
<path d="M353.68 263.635L340.172 254.146L338.109 259.403L350.973 266.269L353.68 263.635Z" fill="#FF2333"/>
<path opacity="0.6" d="M353.68 263.635L340.172 254.146L338.109 259.403L350.973 266.269L353.68 263.635Z" fill="white"/>
<path d="M371.729 297.583L371.997 294.579C372.04 294.021 371.935 293.461 371.691 292.946C371.446 292.43 371.07 291.973 370.59 291.611L366.021 288.202C365.119 287.532 364.05 287.064 362.903 286.836C361.756 286.608 360.565 286.627 359.428 286.89L357.994 287.224C357.177 292.183 360.393 298.095 360.393 298.095L361.103 299.871C361.238 300.239 361.454 300.58 361.737 300.873C362.021 301.167 362.367 301.408 362.755 301.582C363.144 301.756 363.568 301.859 364.002 301.887C364.436 301.915 364.871 301.866 365.284 301.743L369.304 300.551C369.989 300.32 370.583 299.916 371.014 299.388C371.445 298.861 371.694 298.234 371.729 297.583Z" fill="#EEC1BB"/>
<path d="M385.29 185.809C385.29 185.809 381.699 172.554 368.031 174.914C354.363 177.275 362.859 197.407 359.991 204.941C357.123 212.474 356.561 224.251 368.031 226.397C366.483 225.163 365.421 223.52 364.999 221.71C364.577 219.899 364.817 218.016 365.686 216.336C365.313 218.184 365.754 220.088 366.919 221.653C366.262 220.445 366.017 219.092 366.214 217.762C366.412 216.431 367.044 215.181 368.031 214.167C371.515 210.686 378.456 197.729 379.14 193.676C379.823 189.624 385.29 185.809 385.29 185.809Z" fill="#263238"/>
<path d="M470.189 252.636L468.87 252.843C468.418 252.914 467.954 252.823 467.578 252.589C467.202 252.355 466.947 251.999 466.867 251.597L454.486 189.328L459.183 188.589L471.555 250.811C471.594 251.01 471.589 251.214 471.54 251.411C471.491 251.608 471.399 251.795 471.269 251.96C471.139 252.126 470.974 252.267 470.782 252.375C470.591 252.484 470.377 252.558 470.154 252.593L470.189 252.636Z" fill="#263238"/>
<path d="M457 201.93C472.377 199.511 482.515 185.846 479.645 171.41C476.774 156.973 461.982 147.231 446.606 149.65C431.229 152.069 421.091 165.734 423.961 180.17C426.831 194.607 441.624 204.349 457 201.93Z" fill="#FF2333"/>
<path opacity="0.6" d="M457 201.93C472.377 199.511 482.515 185.846 479.645 171.41C476.774 156.973 461.982 147.231 446.606 149.65C431.229 152.069 421.091 165.734 423.961 180.17C426.831 194.607 441.624 204.349 457 201.93Z" fill="white"/>
<path d="M459.638 201.515C475.015 199.096 485.153 185.431 482.283 170.995C479.413 156.558 464.62 146.816 449.244 149.235C433.867 151.654 423.729 165.319 426.599 179.755C429.47 194.192 444.262 203.934 459.638 201.515Z" fill="#FF2333"/>
<path opacity="0.7" d="M459.638 201.515C475.015 199.096 485.153 185.431 482.283 170.995C479.413 156.558 464.62 146.816 449.244 149.235C433.867 151.654 423.729 165.319 426.599 179.755C429.47 194.192 444.262 203.934 459.638 201.515Z" fill="white"/>
<path d="M441.544 188.92L451.848 175.808L437.108 166.642L439.239 163.936L453.979 173.102L464.283 159.99L467.325 161.886L457.021 174.998L471.761 184.164L469.63 186.87L454.89 177.703L444.585 190.815L441.544 188.92Z" fill="#FF2333"/>
<path d="M137.497 243.836L116.741 224.812L140.486 239.664L144.787 233.692L128.238 218.518L147.172 230.366L161.39 210.603L242.607 217.171L246.533 221.665L263.39 207.11L249.334 224.883L254.654 230.974L270.452 217.338L257.28 234.002L293.607 275.662L273.132 299.526L289.36 314.402L270.492 302.601L265.065 308.943L277.876 320.684L262.975 311.375L245.408 331.853L206.253 328.79L214.172 352.856L196.993 352.606L216.263 399.404L178.434 343.63L195.988 344.786L187.52 327.324L165.276 325.583L148.78 308.299L129.806 324.689L145.484 304.842L140.244 299.347L122.731 314.462L137.203 296.165L115.91 273.85L137.497 243.836Z" fill="#263238"/>
<path opacity="0.3" d="M137.497 243.836L116.741 224.812L140.486 239.664L144.787 233.692L128.238 218.518L147.172 230.366L161.39 210.603L242.607 217.171L246.533 221.665L263.39 207.11L249.334 224.883L254.654 230.974L270.452 217.338L257.28 234.002L293.607 275.662L273.132 299.526L289.36 314.402L270.492 302.601L265.065 308.943L277.876 320.684L262.975 311.375L245.408 331.853L206.253 328.79L214.172 352.856L196.993 352.606L216.263 399.404L178.434 343.63L195.988 344.786L187.52 327.324L165.276 325.583L148.78 308.299L129.806 324.689L145.484 304.842L140.244 299.347L122.731 314.462L137.203 296.165L115.91 273.85L137.497 243.836Z" fill="white"/>
<path d="M209.254 289.263C202.782 292.946 200.196 294.031 194.997 305.951C194.997 305.951 192.022 308.335 190.588 303.197C189.154 298.06 195.747 289.465 196.31 285.877C196.873 282.29 181.57 282.421 178.193 281.109C174.816 279.798 173.503 274.482 178.461 272.765C178.461 272.765 169.939 268.295 180.431 263.957C180.431 263.957 174.776 258.354 182.897 255.529C182.897 255.529 180.94 250.904 190.334 249.104C197.302 247.757 220.939 254.254 224.209 258.521L219.412 281.169C217.509 286.009 213.703 286.712 209.254 289.263Z" fill="white"/>
<path d="M219.662 286.044L230.54 287.987C231.708 288.195 232.845 287.522 233.08 286.483L238.787 261.192C239.021 260.153 238.264 259.142 237.096 258.933L226.218 256.991C225.05 256.782 223.912 257.455 223.678 258.494L217.971 283.785C217.737 284.824 218.494 285.836 219.662 286.044Z" fill="#FF2333"/>
<path opacity="0.5" d="M219.662 286.044L230.54 287.987C231.708 288.195 232.845 287.522 233.08 286.483L238.787 261.192C239.021 260.153 238.264 259.142 237.096 258.933L226.218 256.991C225.05 256.782 223.912 257.455 223.678 258.494L217.971 283.785C217.737 284.824 218.494 285.836 219.662 286.044Z" fill="white"/>
<path d="M229.14 260.726C229.216 260.394 229.401 260.089 229.672 259.85C229.943 259.611 230.287 259.449 230.661 259.384C231.035 259.319 231.423 259.354 231.774 259.485C232.126 259.616 232.427 259.836 232.638 260.119C232.849 260.401 232.961 260.733 232.96 261.072C232.96 261.411 232.846 261.743 232.634 262.024C232.422 262.306 232.12 262.526 231.768 262.655C231.416 262.785 231.028 262.819 230.654 262.753C230.404 262.71 230.166 262.623 229.954 262.498C229.742 262.372 229.56 262.211 229.419 262.022C229.278 261.833 229.181 261.622 229.133 261.399C229.085 261.177 229.087 260.948 229.14 260.726Z" fill="white"/>
</svg>
