<svg width="496" height="330" viewBox="0 0 496 330" fill="none" xmlns="http://www.w3.org/2000/svg">
<g clip-path="url(#clip0_1618_4)">
<path d="M137.65 97.02H53.8987V39.8574H137.65V97.02ZM54.56 96.36H136.989V40.5174H54.56V96.36Z" fill="#EBEBEB"/>
<path d="M60.4459 43.5602C60.4459 43.8891 60.3481 44.2107 60.165 44.4842C59.9819 44.7577 59.7216 44.9709 59.4171 45.0968C59.1125 45.2227 58.7775 45.2556 58.4542 45.1914C58.1309 45.1272 57.8339 44.9688 57.6009 44.7362C57.3678 44.5036 57.2091 44.2073 57.1448 43.8846C57.0805 43.562 57.1135 43.2276 57.2396 42.9237C57.3657 42.6198 57.5794 42.36 57.8534 42.1773C58.1275 41.9945 58.4497 41.897 58.7793 41.897C59.2213 41.897 59.6452 42.0722 59.9577 42.3841C60.2703 42.696 60.4459 43.1191 60.4459 43.5602Z" fill="#A6A6A6"/>
<path d="M67.2576 43.5602C67.2589 43.891 67.1617 44.2147 66.9784 44.4904C66.795 44.766 66.5338 44.981 66.2278 45.1082C65.9218 45.2354 65.5848 45.269 65.2597 45.2048C64.9345 45.1406 64.6357 44.9814 64.4013 44.7475C64.167 44.5136 64.0075 44.2154 63.9431 43.8909C63.8788 43.5664 63.9125 43.2301 64.0399 42.9247C64.1674 42.6193 64.3829 42.3586 64.659 42.1756C64.9352 41.9927 65.2596 41.8957 65.5911 41.897C66.0331 41.897 66.457 42.0722 66.7695 42.3841C67.082 42.696 67.2576 43.1191 67.2576 43.5602Z" fill="#EBEBEB"/>
<path d="M74.0693 43.5602C74.0693 43.8891 73.9716 44.2107 73.7885 44.4842C73.6053 44.7577 73.3451 44.9709 73.0405 45.0968C72.736 45.2227 72.4009 45.2556 72.0776 45.1914C71.7544 45.1272 71.4574 44.9688 71.2243 44.7362C70.9913 44.5036 70.8325 44.2073 70.7682 43.8846C70.7039 43.562 70.7369 43.2276 70.8631 42.9237C70.9892 42.6198 71.2028 42.36 71.4769 42.1773C71.7509 41.9945 72.0732 41.897 72.4028 41.897C72.8448 41.897 73.2687 42.0722 73.5812 42.3841C73.8937 42.696 74.0693 43.1191 74.0693 43.5602Z" fill="#FFC107"/>
<path d="M137.319 46.4707H54.2293V47.1307H137.319V46.4707Z" fill="#EBEBEB"/>
<path d="M48.8329 100.102C49.1241 99.9229 49.4595 99.828 49.8017 99.828C50.1439 99.828 50.4793 99.9229 50.7706 100.102C50.9293 100.203 51.0946 100.296 51.2666 100.379C51.4319 100.472 51.6038 100.558 51.7758 100.643C52.0852 100.783 52.3496 101.006 52.5399 101.287C52.7302 101.568 52.8388 101.895 52.8538 102.234L52.9265 104.61L60.6707 104.366L60.598 101.996C60.588 101.654 60.6736 101.317 60.8454 101.02C61.0171 100.724 61.268 100.482 61.5701 100.32C61.9099 100.139 62.2389 99.9383 62.5555 99.7195C62.8319 99.5226 63.1578 99.4066 63.4966 99.3844C63.8354 99.3623 64.1737 99.4349 64.4734 99.5941L66.5632 100.716L70.227 93.8983L68.1173 92.7961C67.8183 92.6353 67.57 92.3945 67.4006 92.1007C67.2312 91.8069 67.1473 91.4717 67.1584 91.1329C67.1651 90.7474 67.1518 90.3619 67.1187 89.9779C67.0862 89.639 67.1488 89.2978 67.2994 88.9925C67.4501 88.6871 67.6829 88.4296 67.9718 88.2487L69.9558 87.0013L65.8754 80.4013L63.8451 81.6553C63.5559 81.8334 63.2228 81.9278 62.8829 81.9278C62.543 81.9278 62.2098 81.8334 61.9206 81.6553C61.7619 81.5585 61.5966 81.4661 61.4246 81.3781C61.2593 81.2857 61.0874 81.1999 60.9154 81.1207C60.6046 80.9792 60.3392 80.7543 60.1489 80.4711C59.9585 80.1879 59.8507 79.8576 59.8374 79.5169L59.7647 77.1475L52.0205 77.3851L52.0932 79.7479C52.1034 80.0882 52.0184 80.4246 51.8479 80.7195C51.6774 81.0144 51.428 81.2561 51.1277 81.4177C50.7904 81.6025 50.4664 81.8071 50.1423 82.0249C49.8646 82.2216 49.5377 82.3375 49.1979 82.3596C48.8581 82.3818 48.5188 82.3093 48.2178 82.1503L46.128 81.0349L42.4642 87.8461L44.554 88.9681C44.8547 89.1287 45.104 89.3704 45.2735 89.6657C45.4431 89.9609 45.5261 90.2978 45.513 90.6379C45.5323 91.0291 45.572 91.419 45.632 91.8061C45.663 92.1447 45.5998 92.4854 45.4492 92.7904C45.2987 93.0955 45.0667 93.3533 44.7789 93.5353L42.7949 94.7827L46.8753 101.35L48.8329 100.102ZM50.7772 87.8989C51.3707 86.7969 52.2782 85.8952 53.3849 85.3076C54.4917 84.72 55.7481 84.473 56.9955 84.5976C58.2429 84.7223 59.4253 85.2131 60.3933 86.0081C61.3613 86.803 62.0716 87.8664 62.4343 89.064C62.7971 90.2615 62.7961 91.5395 62.4315 92.7365C62.0668 93.9335 61.3549 94.9958 60.3857 95.7893C59.4164 96.5827 58.2332 97.0717 56.9857 97.1944C55.7381 97.3172 54.4821 97.0681 53.3762 96.4789C51.8924 95.6842 50.7852 94.3342 50.2979 92.7255C49.8106 91.1168 49.983 89.3808 50.7772 87.8989Z" fill="#EBEBEB"/>
<path d="M432.089 171.283C432.379 171.104 432.713 171.009 433.054 171.009C433.395 171.009 433.73 171.104 434.02 171.283L434.516 171.567L435.032 171.824C435.341 171.964 435.606 172.187 435.796 172.468C435.986 172.748 436.095 173.076 436.11 173.415L436.182 175.791L443.927 175.547L443.854 173.177C443.845 172.837 443.931 172.502 444.103 172.208C444.275 171.914 444.525 171.674 444.826 171.514C445.162 171.328 445.489 171.126 445.805 170.907C446.083 170.712 446.41 170.597 446.749 170.575C447.089 170.552 447.428 170.624 447.729 170.782L449.819 171.904L453.483 165.086L451.393 163.97C451.093 163.809 450.845 163.567 450.676 163.272C450.506 162.977 450.423 162.64 450.434 162.301C450.441 161.917 450.427 161.534 450.394 161.152C450.362 160.812 450.425 160.47 450.575 160.164C450.726 159.858 450.959 159.599 451.248 159.416L453.232 158.169L449.151 151.569L447.121 152.83C446.832 153.008 446.498 153.102 446.159 153.102C445.819 153.102 445.486 153.008 445.196 152.83L444.7 152.552C444.535 152.46 444.363 152.374 444.191 152.295C443.88 152.155 443.615 151.932 443.424 151.65C443.234 151.367 443.126 151.038 443.113 150.698L443.04 148.322L435.296 148.559L435.369 150.929C435.379 151.268 435.295 151.604 435.124 151.898C434.953 152.192 434.704 152.432 434.403 152.592C434.063 152.776 433.734 152.981 433.418 153.206C433.14 153.401 432.812 153.516 432.473 153.537C432.133 153.558 431.794 153.485 431.494 153.325L429.404 152.209L425.773 159.06L427.863 160.175C428.161 160.338 428.409 160.581 428.578 160.875C428.748 161.17 428.832 161.506 428.822 161.845C428.815 162.231 428.828 162.616 428.861 163C428.893 163.34 428.829 163.681 428.677 163.986C428.525 164.292 428.291 164.549 428.002 164.729L426.018 165.977L430.098 172.577L432.089 171.283ZM434.033 159.06C434.627 157.958 435.535 157.057 436.642 156.47C437.75 155.883 439.006 155.636 440.254 155.762C441.501 155.887 442.683 156.379 443.651 157.175C444.618 157.97 445.328 159.034 445.69 160.232C446.052 161.43 446.05 162.708 445.684 163.905C445.319 165.102 444.606 166.164 443.636 166.956C442.666 167.749 441.482 168.237 440.235 168.359C438.987 168.48 437.731 168.23 436.625 167.64C435.89 167.247 435.239 166.714 434.711 166.069C434.183 165.425 433.787 164.684 433.546 163.887C433.305 163.09 433.224 162.253 433.308 161.425C433.391 160.597 433.638 159.793 434.033 159.06Z" fill="#EBEBEB"/>
<path d="M64.4535 120.325C64.6634 120.445 64.836 120.621 64.9527 120.833C65.0693 121.045 65.1254 121.284 65.1149 121.526C65.1149 121.658 65.1149 121.79 65.1149 121.922C65.1149 122.054 65.1149 122.192 65.1149 122.324C65.1283 122.564 65.0733 122.804 64.9562 123.014C64.8392 123.224 64.6649 123.397 64.4535 123.512L63.0052 124.344L65.7233 129.037L67.165 128.205C67.3692 128.092 67.6005 128.038 67.8337 128.047C68.0669 128.056 68.2931 128.129 68.4877 128.258C68.7125 128.403 68.9506 128.535 69.1887 128.66C69.4022 128.766 69.5821 128.928 69.7083 129.13C69.8344 129.332 69.9018 129.564 69.9029 129.802V131.459H75.392V129.802C75.3931 129.564 75.4605 129.332 75.5866 129.13C75.7128 128.928 75.8927 128.766 76.1062 128.66C76.3443 128.535 76.5758 128.403 76.7676 128.258C76.9624 128.13 77.1885 128.057 77.4216 128.048C77.6546 128.039 77.8858 128.093 78.0902 128.205L79.5319 129.037L82.2434 124.344L80.7951 123.512C80.5832 123.396 80.4087 123.222 80.2916 123.01C80.1746 122.799 80.1199 122.559 80.1338 122.318C80.1338 122.186 80.1338 122.054 80.1338 121.922C80.1338 121.79 80.1338 121.658 80.1338 121.526C80.1199 121.285 80.1746 121.045 80.2916 120.833C80.4087 120.622 80.5832 120.448 80.7951 120.331L82.2368 119.5L79.5253 114.807L78.0902 115.639C77.8811 115.754 77.6447 115.81 77.406 115.802C77.1673 115.794 76.9352 115.722 76.7345 115.592C76.5085 115.443 76.2744 115.307 76.0335 115.183C75.8195 115.078 75.6391 114.916 75.5129 114.714C75.3867 114.512 75.3196 114.279 75.3192 114.041V112.385H69.8897V114.041C69.8894 114.279 69.8223 114.512 69.696 114.714C69.5698 114.916 69.3895 115.078 69.1755 115.183C68.9337 115.305 68.6996 115.442 68.4744 115.592C68.2775 115.715 68.0515 115.784 67.8193 115.792C67.5871 115.801 67.3569 115.747 67.1518 115.639L65.7299 114.84L63.0118 119.533L64.4535 120.325ZM72.6475 117.48C73.528 117.479 74.3892 117.738 75.122 118.225C75.8548 118.713 76.4263 119.406 76.7642 120.217C77.102 121.029 77.1911 121.922 77.0201 122.784C76.8491 123.646 76.4258 124.438 75.8036 125.06C75.1814 125.682 74.3884 126.106 73.5248 126.278C72.6613 126.45 71.766 126.362 70.9524 126.026C70.1387 125.69 69.4432 125.121 68.9539 124.39C68.4645 123.66 68.2033 122.801 68.2033 121.922C68.205 120.745 68.6736 119.618 69.5065 118.785C70.3394 117.953 71.4687 117.483 72.6475 117.48Z" fill="#EBEBEB"/>
<path d="M60.6178 188.1C60.6178 187.354 60.717 185.368 60.717 184.523C60.717 180.9 59.3943 179.243 56.0414 179.164C54.4542 179.065 53.5085 178.121 53.5085 176.781C53.5085 175.441 54.4542 174.498 56.0414 174.399C59.4274 174.247 60.717 172.656 60.717 168.987C60.717 168.142 60.6178 166.155 60.6178 165.409C60.6178 160.598 62.6613 157.489 70.3725 155.833C70.8969 155.711 71.4481 155.79 71.917 156.054C72.3858 156.318 72.7383 156.748 72.9046 157.259C73.0709 157.771 73.0389 158.325 72.8149 158.814C72.5909 159.303 72.1913 159.69 71.6952 159.898C66.8674 161.39 66.173 162.928 66.173 166.307C66.173 167.297 66.2722 168.947 66.2722 169.977C66.2722 173.851 64.3808 175.738 61.094 176.781C64.4006 177.87 66.2722 179.712 66.2722 183.579C66.2722 184.622 66.173 186.259 66.173 187.255C66.173 190.628 66.8344 192.172 71.6952 193.657C72.2021 193.859 72.6133 194.245 72.8453 194.738C73.0773 195.231 73.1128 195.794 72.9446 196.312C72.7763 196.83 72.4169 197.264 71.9392 197.528C71.4616 197.791 70.9015 197.863 70.3725 197.73C62.6613 196.02 60.6178 192.945 60.6178 188.1Z" fill="#EBEBEB"/>
<path d="M89.7694 165.39C89.7694 166.135 89.6702 168.122 89.6702 168.967C89.6702 172.636 90.9929 174.247 94.3987 174.379C95.9396 174.478 96.8853 175.422 96.8853 176.761C96.8853 178.101 95.9396 179.045 94.3987 179.144C91.0127 179.243 89.6702 180.88 89.6702 184.503C89.6702 185.348 89.7694 187.335 89.7694 188.08C89.7694 192.945 87.7325 196 80.0213 197.71C79.4802 197.885 78.8916 197.838 78.385 197.58C77.8783 197.322 77.4952 196.874 77.3198 196.334C77.1444 195.794 77.1911 195.206 77.4497 194.701C77.7083 194.195 78.1576 193.813 78.6987 193.638C83.4735 192.153 84.1745 190.608 84.1745 187.236C84.1745 186.239 84.0753 184.596 84.0753 183.559C84.0753 179.692 85.9601 177.804 89.2469 176.761C85.9403 175.666 84.0753 173.831 84.0753 169.957C84.0753 168.914 84.1745 167.277 84.1745 166.287C84.1745 162.908 83.4735 161.37 78.6987 159.879C78.2683 159.744 77.8941 159.473 77.6336 159.105C77.3731 158.738 77.2408 158.295 77.257 157.846C77.2489 157.512 77.3212 157.182 77.4676 156.882C77.6141 156.582 77.8305 156.321 78.0988 156.122C78.367 155.923 78.6792 155.791 79.0091 155.737C79.339 155.683 79.6771 155.709 79.9949 155.813C87.7325 157.496 89.7694 160.578 89.7694 165.39Z" fill="#EBEBEB"/>
<path d="M410.814 86.6318C411.202 86.997 411.47 87.4709 411.584 87.9913C411.697 88.5116 411.65 89.054 411.449 89.5472C411.248 90.0405 410.903 90.4616 410.458 90.7552C410.012 91.0488 409.489 91.2012 408.955 91.1924C408.22 91.2068 407.508 90.9345 406.971 90.4334L395.067 78.3818C394.935 78.3422 394.895 78.2564 394.856 78.131C394.816 78.0962 394.771 78.0673 394.723 78.0452C394.667 77.9389 394.625 77.8257 394.598 77.7086C394.564 77.6926 394.535 77.6685 394.513 77.6386C394.491 77.6086 394.477 77.5737 394.472 77.537C394.432 77.4512 394.432 77.3258 394.386 77.2862C394.34 77.2466 394.3 77.1146 394.3 77.075V76.778C394.3 76.6922 394.26 76.6526 394.26 76.5206C394.26 76.3886 394.3 76.3556 394.3 76.3094V76.019C394.3 75.9332 394.386 75.887 394.386 75.8474C394.386 75.8078 394.432 75.6362 394.472 75.5108C394.512 75.3854 394.512 75.4646 394.512 75.425C394.512 75.3854 394.644 75.128 394.723 75.0422C394.723 75.0194 394.732 74.9976 394.749 74.9815C394.765 74.9654 394.787 74.9564 394.809 74.9564C394.87 74.8396 394.958 74.7397 395.067 74.666L406.971 62.6144C407.484 62.1254 408.166 61.8525 408.876 61.8525C409.585 61.8525 410.268 62.1254 410.781 62.6144C411.037 62.8606 411.24 63.1559 411.379 63.4825C411.518 63.8091 411.59 64.1603 411.59 64.5152C411.59 64.87 411.518 65.2213 411.379 65.5479C411.24 65.8744 411.037 66.1697 410.781 66.416L400.768 76.5206L410.814 86.6318Z" fill="#EBEBEB"/>
<path d="M421.62 87.9846L431.996 63.36C432.118 63.0759 432.295 62.8187 432.516 62.6031C432.738 62.3875 433 62.2177 433.288 62.1036C433.575 61.9896 433.883 61.9334 434.192 61.9383C434.502 61.9432 434.807 62.0092 435.091 62.1324C435.367 62.2515 435.616 62.4237 435.825 62.6393C436.034 62.8548 436.198 63.1094 436.308 63.3885C436.418 63.6675 436.472 63.9654 436.466 64.2652C436.46 64.565 436.395 64.8607 436.275 65.1354L425.899 89.7996C425.714 90.2171 425.411 90.5716 425.026 90.8191C424.642 91.0665 424.193 91.1963 423.736 91.1922C423.445 91.1977 423.157 91.1415 422.89 91.0272C422.602 90.9159 422.34 90.7476 422.119 90.5326C421.898 90.3176 421.723 90.0603 421.605 89.7761C421.486 89.4919 421.426 89.1867 421.429 88.8788C421.431 88.5709 421.496 88.2667 421.62 87.9846Z" fill="#EBEBEB"/>
<path d="M456.783 78.0448C456.783 78.0553 456.779 78.0654 456.771 78.0728C456.764 78.0802 456.754 78.0844 456.743 78.0844C456.654 78.1931 456.555 78.2926 456.446 78.3814L444.542 90.433C444.027 90.9209 443.344 91.193 442.634 91.193C441.924 91.193 441.241 90.9209 440.726 90.433C440.475 90.184 440.275 89.8878 440.139 89.5616C440.003 89.2354 439.933 88.8856 439.933 88.5322C439.933 88.1789 440.003 87.8291 440.139 87.5028C440.275 87.1766 440.475 86.8805 440.726 86.6314L450.765 76.5202L440.726 66.4156C440.475 66.1666 440.275 65.8704 440.139 65.5442C440.003 65.218 439.933 64.8682 439.933 64.5148C439.933 64.1615 440.003 63.8117 440.139 63.4854C440.275 63.1592 440.475 62.8631 440.726 62.614C441.24 62.1246 441.923 61.8516 442.634 61.8516C443.344 61.8516 444.028 62.1246 444.542 62.614L456.446 74.6656C456.554 74.7523 456.654 74.8495 456.743 74.956C456.783 74.956 456.783 75.0418 456.783 75.0418C456.861 75.1649 456.932 75.2927 456.995 75.4246C456.995 75.4642 457.041 75.4642 457.041 75.5104C457.068 75.6404 457.11 75.7667 457.167 75.8866C457.167 75.9328 457.206 75.9328 457.206 76.0186V76.309C457.206 76.3552 457.252 76.4806 457.252 76.5202C457.252 76.5598 457.206 76.6918 457.206 76.7314V77.0746C457.206 77.1142 457.167 77.1142 457.167 77.1604C457.116 77.2826 457.074 77.4083 457.041 77.5366C457.041 77.5828 456.995 77.5828 456.995 77.662C456.995 77.7412 456.869 77.8798 456.783 78.0448Z" fill="#EBEBEB"/>
<path d="M39.3626 229.812C173.031 229.403 322.969 229.403 456.664 229.812C322.995 230.214 173.058 230.214 39.3626 229.812Z" fill="#263238"/>
<path d="M456.981 131.848C441.533 152.731 425.422 176.959 421.501 203.128C421.454 203.524 422.089 203.656 422.162 203.26C423.938 196.12 426.221 189.116 428.994 182.299C439.152 179.507 449.118 177.217 454.455 167.158C459.891 156.816 459.203 143.332 458.165 132.066C458.132 131.479 457.312 131.446 456.981 131.848Z" fill="#FFC107"/>
<path d="M429.205 182.114C436.149 166.571 445.077 150.968 456.38 138.191C456.452 138.105 456.571 138.224 456.505 138.31C449.092 147.411 443.457 157.324 437.988 167.409C443.1 162.228 448.708 157.588 453.556 152.09C453.648 151.985 453.8 152.143 453.708 152.249C448.9 158.011 443.642 164.267 437.379 168.531C435.695 171.611 433.996 174.713 432.281 177.837C432.704 177.599 433.134 177.395 433.57 177.177C433.643 177.144 433.709 177.256 433.636 177.296C433.16 177.533 432.684 177.791 432.188 177.995C431.375 179.467 430.574 180.939 429.734 182.404C429.496 182.728 429.04 182.444 429.205 182.114Z" fill="#263238"/>
<path d="M434.35 176.689C438.505 174.364 442.47 171.715 446.208 168.769C446.307 168.69 446.453 168.828 446.354 168.914C442.726 172.049 438.747 174.756 434.496 176.979C434.331 177.078 434.159 176.801 434.35 176.689Z" fill="#263238"/>
<path d="M419.735 199.247C419.768 199.564 420.304 199.564 420.297 199.247C420.383 190.628 420.297 181.969 420.436 173.303C422.651 168.848 427.4 166.379 430.707 162.809C433.082 160.193 435.15 157.314 436.87 154.229C440.951 146.969 443.166 138.732 444.013 130.469C444.925 121.229 441.42 90.816 437.525 91.872C435.508 92.4198 428.967 107.494 427.235 112.477C424.421 120.695 422.362 129.152 421.084 137.742C417.923 157.997 418.187 178.86 419.735 199.247Z" fill="#FFC107"/>
<path d="M419.676 162.056L419.715 162.017C420.185 151.107 422.652 140.091 424.953 129.512C427.44 118.113 430.343 107.375 436.196 97.2112C436.219 97.1734 436.257 97.1463 436.3 97.1355C436.343 97.1247 436.389 97.1311 436.428 97.1534C436.466 97.1757 436.495 97.212 436.507 97.2549C436.519 97.2977 436.514 97.3436 436.493 97.3828C432.57 105.288 429.534 113.602 427.44 122.172C427.836 121.559 428.313 120.978 428.723 120.397C428.881 120.166 429.265 120.397 429.106 120.615C428.579 121.535 427.963 122.401 427.268 123.202C427.246 123.223 427.218 123.237 427.188 123.242C425.165 131.386 423.716 139.742 422.473 148.038C422.566 147.932 422.651 147.813 422.744 147.714C422.759 147.703 422.777 147.697 422.796 147.697C422.815 147.697 422.833 147.703 422.848 147.714C422.863 147.725 422.873 147.741 422.879 147.759C422.884 147.777 422.883 147.796 422.876 147.813C422.718 148.091 422.546 148.361 422.38 148.638C421.719 152.856 421.17 157.067 420.588 161.244C428.114 154.823 434.549 147.252 438.173 137.927C438.176 137.92 438.181 137.914 438.188 137.909C438.194 137.905 438.202 137.903 438.209 137.903C438.217 137.903 438.225 137.905 438.231 137.909C438.238 137.914 438.243 137.92 438.246 137.927C434.694 147.596 429.093 156.195 420.469 162.069L419.993 165.435C419.96 165.666 419.59 165.607 419.59 165.383C419.59 164.386 419.642 163.403 419.682 162.393C419.658 162.372 419.638 162.347 419.624 162.318C419.611 162.289 419.603 162.258 419.603 162.226C419.602 162.194 419.608 162.163 419.621 162.133C419.633 162.104 419.652 162.078 419.676 162.056Z" fill="#263238"/>
<path d="M423.253 146.243C429.007 137.663 434.377 129.353 438.59 119.882C438.636 119.777 438.821 119.882 438.775 119.962C435.23 129.373 430.263 138.91 423.564 146.467C423.372 146.619 423.101 146.421 423.253 146.243Z" fill="#263238"/>
<path d="M430.865 117.764C433.246 113.559 435.759 109.461 438.008 105.171C438.067 105.052 438.232 105.171 438.18 105.27C436.344 109.751 434.015 114.014 431.236 117.981C431.077 118.199 430.726 118.008 430.865 117.764Z" fill="#263238"/>
<path d="M429.933 119.599C429.94 119.602 429.947 119.607 429.951 119.613C429.955 119.62 429.957 119.627 429.957 119.635C429.957 119.643 429.955 119.65 429.951 119.657C429.947 119.663 429.94 119.668 429.933 119.671C429.926 119.668 429.92 119.663 429.916 119.657C429.911 119.65 429.909 119.643 429.909 119.635C429.909 119.627 429.911 119.62 429.916 119.613C429.92 119.607 429.926 119.602 429.933 119.599Z" fill="#263238"/>
<path d="M413.889 174.313C413.772 180.028 413.096 185.717 411.872 191.301C411.958 191.915 412.044 192.529 412.136 193.162C413.898 186.993 414.92 180.637 415.178 174.227C415.231 174.138 415.258 174.037 415.258 173.933C415.258 173.83 415.231 173.729 415.178 173.64C415.444 165.041 414.826 156.438 413.333 147.966C410.655 132.126 404.809 116.913 393.738 105.033C393.646 104.955 393.538 104.899 393.421 104.869C393.305 104.84 393.183 104.837 393.065 104.861C392.947 104.885 392.836 104.936 392.741 105.009C392.646 105.082 392.568 105.176 392.515 105.283C388.044 116.622 389.605 130.159 393.414 141.471C395.486 147.587 398.443 153.368 402.19 158.631C405.959 163.984 410.8 168.492 413.889 174.313Z" fill="#FFC107"/>
<path d="M395.014 110.339C405.51 127.34 412.811 147.49 413.704 167.574C413.704 167.93 413.122 168.023 413.042 167.66C412.798 165.851 412.52 164.063 412.229 162.287C407.891 158.136 403.433 153.753 400.325 148.572C400.265 148.48 400.398 148.374 400.47 148.454C404.247 152.763 407.745 157.179 412.037 160.994C411.292 156.55 410.395 152.178 409.345 147.879C409.061 147.556 408.79 147.219 408.512 146.903C408.334 146.691 408.631 146.381 408.823 146.592L409.074 146.87C407.596 140.971 405.765 135.166 403.592 129.485C400.947 126.304 397.931 123.545 395.987 119.724C395.976 119.706 395.973 119.684 395.979 119.663C395.984 119.643 395.998 119.625 396.016 119.615C396.035 119.604 396.057 119.602 396.077 119.607C396.097 119.613 396.115 119.626 396.125 119.645C397.635 121.867 399.255 124.013 400.98 126.073C401.687 126.885 402.461 127.644 403.195 128.429C400.772 122.269 397.899 116.296 394.598 110.556C394.569 110.501 394.563 110.437 394.582 110.378C394.6 110.318 394.642 110.269 394.697 110.24C394.752 110.211 394.817 110.205 394.876 110.224C394.936 110.242 394.985 110.284 395.014 110.339Z" fill="#263238"/>
<path d="M397.137 131.34C400.53 135.901 404.412 140.244 407.547 144.956C407.639 145.088 407.441 145.227 407.328 145.121C403.274 141.333 399.849 136.152 396.906 131.479C396.8 131.294 397.038 131.175 397.137 131.34Z" fill="#263238"/>
<path d="M408.043 145.979L408.188 146.124C408.287 146.223 408.129 146.375 408.029 146.276L407.884 146.131C407.765 146.032 407.924 145.86 408.043 145.979Z" fill="#263238"/>
<path d="M378.574 143.015C379.413 151.76 384.023 162.208 389.644 168.947C392.118 171.876 395.177 174.259 398.625 175.943C402.514 177.863 406.561 180.074 410.615 181.652C412.525 186.508 413.945 191.542 414.854 196.68C414.987 196.244 415.112 195.789 415.245 195.36C412.659 173.224 398.308 154.295 379.943 142.144C379.799 142.052 379.632 142.002 379.461 142.001C379.29 142.001 379.122 142.049 378.978 142.141C378.834 142.233 378.719 142.364 378.647 142.519C378.576 142.674 378.55 142.846 378.574 143.015Z" fill="#FFC107"/>
<path d="M384.896 149.563C384.764 149.444 384.942 149.213 385.081 149.318C394.816 156.512 403.599 167.006 408.486 178.101C408.618 178.405 408.201 178.669 408.029 178.365C407.176 176.873 406.303 175.421 405.384 173.996C401.191 173.21 397.223 170.267 394.141 167.468C394.055 167.396 394.181 167.27 394.26 167.343C395.861 168.8 397.639 170.05 399.551 171.065C401.264 171.93 403.102 172.478 404.881 173.171C403.327 170.709 401.707 168.346 400.021 166.056C395.504 164.525 391.212 161.759 387.455 158.994C387.336 158.908 387.455 158.71 387.574 158.789C391.362 161.077 395.27 163.161 399.28 165.033C396.723 161.663 393.962 158.451 391.013 155.417C389.591 154.664 388.143 153.912 386.761 153.107C386.649 153.041 386.761 152.849 386.854 152.896C388.001 153.295 389.096 153.831 390.114 154.493C388.454 152.823 386.741 151.173 384.896 149.563Z" fill="#263238"/>
<path d="M385.306 157.205C385.555 157.353 385.792 157.521 386.014 157.707C386.08 157.766 386.014 157.852 385.921 157.826C385.667 157.704 385.422 157.565 385.187 157.41C385.061 157.324 385.18 157.126 385.306 157.205Z" fill="#263238"/>
<path d="M398.824 188.826H438.662L434.741 229.806H402.745L398.824 188.826Z" fill="#455A64"/>
<path d="M399.578 196.693L398.824 188.826H438.662L438.18 193.902L399.578 196.693Z" fill="#37474F"/>
<path d="M441.361 181.771H396.132V191.75H441.361V181.771Z" fill="#455A64"/>
<path d="M401.271 27.6738H94.736V232.307H401.271V27.6738Z" fill="#DBDBDB"/>
<path d="M399.042 30.1685H96.9647V229.812H399.042V30.1685Z" fill="#263238"/>
<path d="M441.189 279.84H54.8113V294.017H441.189V279.84Z" fill="#C7C7C7"/>
<path d="M54.8113 279.84L94.736 232.307H401.264L441.189 279.84H54.8113Z" fill="#DBDBDB"/>
<path d="M401.251 253.856H95.9066L111.56 232.307H385.597L401.251 253.856Z" fill="#263238"/>
<path d="M395.782 246.325H101.376L102.011 245.447H395.147L395.782 246.325Z" fill="#37474F"/>
<path d="M390.061 238.458H107.096L107.731 237.574H389.426L390.061 238.458Z" fill="#37474F"/>
<path d="M200.734 274.494L210.628 259.327H285.841L296.429 274.494H200.734Z" fill="#263238"/>
<path d="M276.338 285.536H220.819L219.444 279.84H277.72L276.338 285.536Z" fill="#DBDBDB"/>
<path d="M382.198 45.3354H113.809V214.929H382.198V45.3354Z" fill="#37474F"/>
<path d="M382.198 45.3354H113.809V51.8628H382.198V45.3354Z" fill="#FFC107"/>
<path d="M119.959 48.596C119.959 48.8401 119.887 49.0788 119.751 49.2817C119.615 49.4847 119.422 49.6429 119.196 49.7363C118.97 49.8297 118.721 49.8541 118.481 49.8065C118.241 49.7589 118.021 49.6414 117.848 49.4687C117.675 49.2961 117.557 49.0762 117.51 48.8368C117.462 48.5974 117.486 48.3492 117.58 48.1237C117.674 47.8982 117.832 47.7054 118.035 47.5698C118.239 47.4342 118.478 47.3618 118.723 47.3618C118.885 47.361 119.046 47.3923 119.197 47.454C119.347 47.5157 119.484 47.6066 119.599 47.7214C119.714 47.8362 119.805 47.9726 119.867 48.1227C119.929 48.2728 119.96 48.4337 119.959 48.596Z" fill="#C7C7C7"/>
<path d="M124.992 48.596C124.992 48.8401 124.919 49.0788 124.784 49.2817C124.648 49.4847 124.455 49.6429 124.229 49.7363C124.003 49.8297 123.754 49.8541 123.514 49.8065C123.274 49.7589 123.054 49.6414 122.881 49.4687C122.708 49.2961 122.59 49.0762 122.542 48.8368C122.495 48.5974 122.519 48.3492 122.613 48.1237C122.706 47.8982 122.865 47.7054 123.068 47.5698C123.272 47.4342 123.511 47.3618 123.755 47.3618C123.918 47.361 124.079 47.3923 124.23 47.454C124.38 47.5157 124.517 47.6066 124.632 47.7214C124.747 47.8362 124.838 47.9726 124.9 48.1227C124.961 48.2728 124.993 48.4337 124.992 48.596Z" fill="white"/>
<path d="M130.064 48.596C130.064 48.8401 129.992 49.0788 129.856 49.2817C129.72 49.4847 129.527 49.6429 129.301 49.7363C129.075 49.8297 128.826 49.8541 128.586 49.8065C128.347 49.7589 128.126 49.6414 127.953 49.4687C127.78 49.2961 127.663 49.0762 127.615 48.8368C127.567 48.5974 127.592 48.3492 127.685 48.1237C127.779 47.8982 127.937 47.7054 128.141 47.5698C128.344 47.4342 128.583 47.3618 128.828 47.3618C128.99 47.361 129.152 47.3923 129.302 47.454C129.452 47.5157 129.589 47.6066 129.704 47.7214C129.819 47.8362 129.91 47.9726 129.972 48.1227C130.034 48.2728 130.065 48.4337 130.064 48.596Z" fill="#455A64"/>
<path d="M138.51 80.8564H130.957V83.1466H138.51V80.8564Z" fill="#EBEBEB"/>
<path d="M314.801 80.8564H147.418V83.1466H314.801V80.8564Z" fill="#EBEBEB"/>
<path d="M333.788 80.8564H319.444V83.1466H333.788V80.8564Z" fill="#FFC107"/>
<path d="M138.51 91.687H130.957V93.9772H138.51V91.687Z" fill="#EBEBEB"/>
<path d="M211.62 91.687H154.778V93.9772H211.62V91.687Z" fill="#A6A6A6"/>
<path d="M338.986 135.023H317.486V137.313H338.986V135.023Z" fill="#A6A6A6"/>
<path d="M201.713 124.186H147.418V126.476H201.713V124.186Z" fill="#A6A6A6"/>
<path d="M192.871 102.524H154.778V104.815H192.871V102.524Z" fill="#FFC107"/>
<path d="M338.689 102.524H197.097V104.815H338.689V102.524Z" fill="#A6A6A6"/>
<path d="M312.573 135.023H147.418V137.313H312.573V135.023Z" fill="#FFC107"/>
<path d="M332.188 91.687H215.191V93.9772H332.188V91.687Z" fill="#EBEBEB"/>
<path d="M138.51 102.524H130.957V104.815H138.51V102.524Z" fill="#EBEBEB"/>
<path d="M138.51 113.355H130.957V115.645H138.51V113.355Z" fill="#A6A6A6"/>
<path d="M192.045 113.355H147.418V115.645H192.045V113.355Z" fill="#EBEBEB"/>
<path d="M199.405 145.854H154.778V148.144H199.405V145.854Z" fill="#EBEBEB"/>
<path d="M314.854 156.69H195.133V158.981H314.854V156.69Z" fill="#EBEBEB"/>
<path d="M188.321 156.69H154.778V158.981H188.321V156.69Z" fill="#A6A6A6"/>
<path d="M333.782 124.186H204.782V126.476H333.782V124.186Z" fill="#EBEBEB"/>
<path d="M325.528 113.355H196.581V115.645H325.528V113.355Z" fill="#FFC107"/>
<path d="M138.51 124.186H130.957V126.476H138.51V124.186Z" fill="#EBEBEB"/>
<path d="M138.51 135.023H130.957V137.313H138.51V135.023Z" fill="#EBEBEB"/>
<path d="M138.51 145.854H130.957V148.144H138.51V145.854Z" fill="#A6A6A6"/>
<path d="M138.51 156.69H130.957V158.981H138.51V156.69Z" fill="#EBEBEB"/>
<path d="M138.51 166.524H130.957V168.815H138.51V166.524Z" fill="#EBEBEB"/>
<path d="M235.957 166.524H147.418V168.815H235.957V166.524Z" fill="#EBEBEB"/>
<path d="M133.946 70.0326C134.006 70.0904 134.046 70.1644 134.063 70.2452C134.08 70.326 134.072 70.41 134.041 70.4865C134.01 70.5629 133.956 70.6284 133.888 70.6745C133.819 70.7206 133.738 70.7453 133.655 70.7454C133.543 70.7459 133.434 70.7034 133.351 70.6266L131.48 68.739C131.48 68.739 131.48 68.739 131.447 68.6994C131.444 68.6819 131.444 68.6641 131.447 68.6466C131.447 68.6466 131.447 68.6466 131.447 68.607V68.5608C131.447 68.5608 131.447 68.5608 131.447 68.5212V68.475C131.447 68.475 131.447 68.442 131.447 68.4222C131.445 68.4024 131.445 68.3826 131.447 68.3628C131.456 68.3444 131.469 68.3285 131.486 68.3166L133.358 66.429C133.438 66.3524 133.545 66.3096 133.655 66.3096C133.766 66.3096 133.873 66.3524 133.953 66.429C133.993 66.4677 134.024 66.5139 134.046 66.5649C134.067 66.6159 134.078 66.6707 134.078 66.726C134.078 66.7813 134.067 66.8361 134.046 66.8871C134.024 66.9381 133.993 66.9843 133.953 67.023L132.379 68.607L133.946 70.0326Z" fill="#FFC107"/>
<path d="M135.639 70.2439L137.266 66.3763C137.285 66.3318 137.313 66.2915 137.347 66.2577C137.382 66.2239 137.423 66.1973 137.467 66.1795C137.512 66.1616 137.56 66.1529 137.609 66.1539C137.657 66.1548 137.705 66.1654 137.749 66.1849C137.793 66.203 137.832 66.2294 137.865 66.2628C137.899 66.2962 137.925 66.3358 137.943 66.3794C137.961 66.4229 137.97 66.4696 137.969 66.5166C137.969 66.5637 137.959 66.6102 137.941 66.6535L136.307 70.5277C136.279 70.5931 136.232 70.6486 136.172 70.6873C136.112 70.7261 136.042 70.7463 135.97 70.7455C135.927 70.7548 135.881 70.7548 135.838 70.7455C135.789 70.7286 135.745 70.7015 135.708 70.6661C135.671 70.6306 135.643 70.5876 135.624 70.54C135.605 70.4924 135.597 70.4414 135.599 70.3903C135.602 70.3392 135.616 70.2893 135.639 70.2439Z" fill="#FFC107"/>
<path d="M141.155 68.6796L141.109 68.7324L139.231 70.62C139.15 70.6966 139.044 70.7394 138.933 70.7394C138.822 70.7394 138.715 70.6966 138.635 70.62C138.596 70.5813 138.564 70.535 138.543 70.484C138.521 70.433 138.51 70.3783 138.51 70.323C138.51 70.2676 138.521 70.2129 138.543 70.1619C138.564 70.1109 138.596 70.0647 138.635 70.026L140.203 68.442L138.629 66.858C138.589 66.8193 138.558 66.773 138.536 66.722C138.515 66.671 138.504 66.6163 138.504 66.561C138.504 66.5056 138.515 66.4509 138.536 66.3999C138.558 66.3489 138.589 66.3027 138.629 66.264C138.709 66.1873 138.815 66.1445 138.926 66.1445C139.037 66.1445 139.144 66.1873 139.224 66.264L141.095 68.1516L141.142 68.1978C141.154 68.2169 141.165 68.2368 141.175 68.2572C141.173 68.2769 141.173 68.2968 141.175 68.3166V68.3628V68.4156C141.174 68.4354 141.174 68.4552 141.175 68.475L141.155 68.6796Z" fill="#FFC107"/>
<path d="M241.909 161.489H240.877V173.851H241.909V161.489Z" fill="#EBEBEB"/>
<path d="M153.952 304.161C153.952 304.161 179.988 292.611 184.274 290.657C192.871 286.743 208.267 274.685 214.854 270.441C218.703 267.96 215.628 259.571 203.922 260.997C192.217 262.422 170.393 273.801 168.514 271.352C166.636 268.904 196.952 250.727 201.204 249.262C205.456 247.797 219.497 253.499 227.981 250.582C236.466 247.665 232.042 240.141 225.283 237.309C216.329 233.554 199.273 231.158 192.997 231.158C186.721 231.158 167.41 245.177 167.41 245.177C167.41 245.177 193.453 234.953 196.674 233.059C199.895 231.165 215.396 230.868 225.197 227.363C234.998 223.859 228.596 213.84 212.209 213.985C202.573 213.976 192.956 214.811 183.467 216.48C178.838 217.179 150.877 235.659 150.877 235.659C150.877 235.659 156.293 234.491 158.489 233.759C160.684 233.026 182.495 219.311 185.524 217.714C196.958 211.675 205.046 203.597 201.396 198.501C198.75 194.799 183.487 199.531 176.054 203.781C166.173 209.424 138.166 230.115 138.166 230.115L173.269 206.468C173.269 206.468 170.432 204.118 161.002 206.19C155.427 207.418 132.564 221.054 128.934 223.819C117.955 232.168 88.4335 268.098 88.4335 268.098L112.579 299.019L153.952 304.161Z" fill="#D3766A"/>
<path d="M139.806 229.291C148.086 222.387 154.838 214.606 172.463 206.191C172.522 206.191 172.462 206.012 172.396 206.026C159.831 209.233 147.973 219.43 139.535 228.921C139.257 229.271 139.475 229.561 139.806 229.291Z" fill="#263238"/>
<path d="M152.153 235.494C159.487 231.125 167.972 225.258 176.735 220.974C181.033 218.869 182.885 218.44 189.042 215.754C189.102 215.754 189.042 215.595 188.989 215.609C183.414 217.021 182.495 216.856 176.51 219.113C168.719 222.05 155.936 231.502 151.902 235.211C151.584 235.501 151.763 235.719 152.153 235.494Z" fill="#263238"/>
<path d="M165.704 244.563C173.64 241.368 183.275 235.633 191.463 232.993C193.513 232.333 196.647 231.911 201.336 231.911C201.588 231.911 201.898 231.633 201.303 231.528C197.335 230.802 193.4 230.868 190.953 231.528C182.925 233.765 170.055 241.19 165.505 244.239C165.148 244.49 165.287 244.734 165.704 244.563Z" fill="#263238"/>
<path d="M153.952 304.168L137.769 329.947H18.3322L88.407 268.099L148.258 261.505L153.952 304.168Z" fill="#D3766A"/>
<path d="M137.769 329.947L142.048 323.123L52.6818 299.627L18.3322 329.947H137.769Z" fill="#FFC107"/>
<path opacity="0.1" d="M137.769 329.947L142.048 323.123L52.6818 299.627L18.3322 329.947H137.769Z" fill="black"/>
<path opacity="0.1" d="M19.1059 329.261L22.4655 326.291V329.941H19.1059V329.261Z" fill="black"/>
<path opacity="0.1" d="M136.903 321.77V329.941H133.543V320.886L136.903 321.77Z" fill="black"/>
<path opacity="0.1" d="M114.014 315.751L124.952 318.628H114.014V329.941H110.654V318.628H91.1251V329.941H87.7655V318.628H68.2364V329.941H64.8768V318.628H45.3542V329.941H41.9947V318.628H31.1488L34.9515 315.275H41.9947V309.058L45.3542 306.095V315.275H64.8768V302.834L68.2364 303.719V315.275H87.7655V308.854L91.1251 309.731V315.275H110.654V314.866L112.202 315.275H114.014V315.751Z" fill="black"/>
<path d="M36.9751 310.246L142.048 326.924L151.743 312.002L58.0717 291.278L36.9751 310.246Z" fill="#FFC107"/>
<path d="M331.619 290.552C331.619 290.552 307.89 278.804 303.44 277.273C294.525 274.197 280.848 261.34 273.878 257.75C269.811 255.651 272.066 247.005 283.857 247.302C295.649 247.599 308.73 257.334 309.312 256.357C310.906 253.717 283.659 241.487 279.294 240.438C274.929 239.389 261.293 242.959 252.563 240.867C243.834 238.775 247.517 230.868 253.972 227.397C262.523 222.777 279.473 222.235 285.716 221.628C291.959 221.021 312.533 233.132 312.533 233.132C312.533 233.132 285.63 225.456 282.237 223.892C278.845 222.328 263.389 223.509 253.297 220.962C243.205 218.414 248.615 207.828 264.937 206.402C274.529 205.477 284.184 205.393 293.791 206.151C298.493 206.402 328.074 222.117 328.074 222.117C328.074 222.117 322.572 221.456 320.317 220.955C318.062 220.453 295.027 208.877 291.879 207.577C279.903 202.62 271.081 195.36 274.242 189.955C276.543 185.995 292.164 189.262 299.968 192.773C310.35 197.446 340.216 215.352 340.216 215.352L300.437 194.298C300.437 194.298 302.269 190.529 307.95 191.077C328.246 193.057 344.925 205.768 348.807 208.177C360.539 215.437 393.388 248.371 393.388 248.371L372.846 279.84L331.619 290.552Z" fill="#D3766A"/>
<path d="M340.587 212.778C331.401 207.339 319.622 200.112 301.29 193.295C301.231 193.295 301.251 193.163 301.29 193.176C313.809 195.954 330.905 203.987 340.745 212.534C341.096 212.791 340.964 212.989 340.587 212.778Z" fill="#263238"/>
<path d="M326.791 222.024C319.074 218.388 310.06 213.358 300.927 209.933C296.443 208.25 294.564 207.999 288.176 205.914C288.11 205.914 288.143 205.755 288.216 205.768C293.903 206.64 294.796 206.382 300.973 208.059C309.008 210.237 322.645 218.414 327.016 221.721C327.36 221.978 327.201 222.216 326.791 222.024Z" fill="#263238"/>
<path d="M314.173 232.36C305.986 229.931 295.828 225.146 287.422 223.311C285.319 222.849 277.006 222.526 272.337 222.974C272.086 222.974 271.755 222.757 272.337 222.592C276.239 221.483 285.299 221.364 287.799 221.806C296 223.265 309.53 229.423 314.352 232.023C314.729 232.228 314.61 232.485 314.173 232.36Z" fill="#263238"/>
<path d="M477.668 330.053L393.388 248.371L340.382 250.681L331.619 290.552L355.579 330.053H477.668Z" fill="#D3766A"/>
<path d="M355.579 330.053L341.281 306.484L414.874 269.194L477.668 330.053H355.579Z" fill="#FFC107"/>
<path opacity="0.1" d="M355.579 330.053L341.281 306.484L414.874 269.194L477.668 330.053H355.579Z" fill="black"/>
<path opacity="0.1" d="M418.743 272.943H407.5L414.114 269.59H415.317L418.068 272.23L418.743 272.943ZM438.848 292.433H368.898V292.492L362.397 295.792H442.306L440.918 294.472L438.848 292.433ZM462.418 315.276H346.611L348.648 318.628H465.876L463.806 316.648L462.418 315.276ZM462.418 315.276L460.434 313.368V330.06H463.793V316.622L462.418 315.276ZM438.848 292.433L437.525 291.179V330.06H440.884V294.42L438.848 292.433ZM415.317 269.59L414.907 269.194L414.656 269.28V330.04H418.022V272.257L415.317 269.59ZM391.82 280.89V330.06H395.18V279.18L391.82 280.89ZM369.024 292.433H368.912V330.053H372.271V290.783L369.024 292.433ZM346.01 304.089V314.279L346.611 315.276L348.648 318.628L349.369 319.823V302.386L346.01 304.089Z" fill="black"/>
<path d="M335.627 304.392L348.384 323.123L437.67 286.928L413.479 265.327L335.627 304.392Z" fill="#FFC107"/>
</g>
<defs>
<clipPath id="clip0_1618_4">
<rect width="496" height="330" fill="white"/>
</clipPath>
</defs>
</svg>
