<svg width="503" height="497" viewBox="0 0 503 497" fill="none" xmlns="http://www.w3.org/2000/svg">
<path d="M435.246 456.604C435.246 456.753 353.679 456.862 253.089 456.862C152.5 456.862 70.9129 456.753 70.9129 456.604C70.9129 456.455 152.459 456.345 253.089 456.345C353.72 456.345 435.246 456.464 435.246 456.604Z" fill="#263238"/>
<path d="M178.404 435.203C201.773 415.253 204.117 382.402 200.093 353.496C199.419 348.675 199.429 343.556 196.653 339.51C193.876 335.465 188.132 333.149 183.957 335.634C180.497 337.701 179.35 342.045 177.68 345.713C175.439 350.6 171.848 354.762 167.318 357.72C164.36 359.639 160.608 361.011 157.348 359.649C152.882 357.78 151.785 352.055 151.312 347.244C150.427 338.258 149.545 329.276 148.667 320.296C148.194 315.485 147.661 310.565 145.709 306.152C143.757 301.738 139.925 297.832 135.156 297.017C130.388 296.202 124.925 299.432 124.442 304.243C124.231 306.231 124.855 308.219 124.925 310.257C124.995 312.295 124.291 314.581 122.42 315.326C120.549 316.072 118.396 314.929 116.837 313.666C111.304 309.313 107.24 303.398 103.397 297.494C99.5538 291.59 95.7913 285.566 90.6808 280.695C85.5704 275.825 78.81 272.296 71.7882 272.624C64.7663 272.952 57.7746 277.952 56.6982 284.91C55.6217 291.868 60.3701 298.349 65.2995 303.408C72.6244 310.895 81.0033 317.299 90.1778 322.424C91.8277 323.348 93.6184 324.342 94.3829 326.062C95.7813 329.163 93.0349 332.672 89.9364 334.014C86.4255 335.574 82.4518 335.604 78.6994 336.439C74.947 337.274 71.0035 339.341 69.9371 343.039C68.4482 348.158 73.1563 352.89 77.6028 355.852C86.5223 361.783 96.4079 366.154 106.827 368.774C110.549 369.708 114.443 370.454 117.591 372.65C120.74 374.847 122.933 378.992 121.545 382.59C120.157 386.189 115.781 387.709 111.958 387.401C108.135 387.093 104.554 385.413 100.892 384.419C93.9302 382.6 85.3289 383.942 81.6369 390.095C79.2124 394.141 79.5142 399.399 81.4055 403.743C83.2968 408.086 86.5965 411.635 90.037 414.885C102.109 426.237 116.857 434.855 132.943 438.592C149.029 442.33 163.576 442.3 178.434 435.153" fill="#F5F5F5"/>
<path d="M181.08 456.664C178.321 443.354 174.279 430.336 169.008 417.788C163.163 403.594 155.447 388.555 146.876 373.108L140.458 361.687C138.335 357.939 136.243 354.232 133.959 350.753C129.571 344.03 124.805 337.556 119.684 331.36C114.845 325.396 110.036 319.929 105.489 314.84C100.942 309.75 96.6062 305.108 92.4715 301.033C85.9482 294.55 78.9106 288.594 71.426 283.22C68.8003 281.312 66.7079 279.91 65.2793 278.976L63.6496 277.912C63.4695 277.785 63.2775 277.675 63.0762 277.584C63.2421 277.731 63.4168 277.867 63.5993 277.992L65.1787 279.125C66.5771 280.119 68.6293 281.56 71.2147 283.499C78.5545 288.962 85.4684 294.963 91.8981 301.45C95.9925 305.546 100.288 310.217 104.805 315.307C109.322 320.396 114.101 325.903 118.889 331.847C123.967 338.038 128.699 344.499 133.064 351.2C135.327 354.689 137.41 358.377 139.522 362.134L145.94 373.555C154.552 388.992 162.268 403.982 168.143 418.116C173.446 430.6 177.548 443.549 180.396 456.793" fill="#E0E0E0"/>
<path d="M133.567 350.723C133.73 350.032 133.817 349.325 133.828 348.616C133.949 347.264 134.05 345.296 134.14 342.86C134.331 337.99 134.361 331.27 134.361 323.855C134.361 316.44 134.492 309.73 134.754 304.88C134.874 302.454 134.995 300.496 135.096 299.134C135.189 298.432 135.209 297.723 135.156 297.017C134.94 297.695 134.805 298.396 134.754 299.104C134.542 300.446 134.321 302.405 134.12 304.83C133.687 309.691 133.466 316.42 133.466 323.845C133.466 331.27 133.466 337.761 133.466 342.84C133.466 345.127 133.466 347.055 133.466 348.606C133.424 349.313 133.457 350.023 133.567 350.723Z" fill="#E0E0E0"/>
<path d="M69.7057 345.534C70.5491 345.609 71.3975 345.609 72.2409 345.534C73.8605 345.534 76.2045 345.465 79.1118 345.534C84.9064 345.534 92.9242 345.882 101.747 346.608C110.569 347.333 118.537 348.367 124.271 349.262C127.148 349.689 129.462 350.097 131.062 350.365C131.884 350.556 132.723 350.672 133.567 350.713C132.781 350.4 131.965 350.167 131.132 350.017C129.543 349.64 127.239 349.143 124.372 348.626C118.648 347.572 110.68 346.459 101.817 345.703C94.2639 345.06 86.6822 344.798 79.1018 344.918C76.1944 344.968 73.8404 345.107 72.2207 345.236C71.3749 345.258 70.5329 345.358 69.7057 345.534Z" fill="#E0E0E0"/>
<path d="M168.002 416.725C168.158 416.478 168.277 416.21 168.354 415.929C168.575 415.293 168.857 414.518 169.189 413.583C169.903 411.536 170.869 408.554 172.006 404.856C174.29 397.451 177.116 387.133 180.054 375.702C182.991 364.271 185.748 353.944 187.871 346.508C188.877 342.89 189.772 339.918 190.406 337.702C190.677 336.708 190.899 335.952 191.08 335.306C191.181 335.031 191.242 334.743 191.261 334.451C191.105 334.698 190.986 334.966 190.909 335.246C190.687 335.883 190.406 336.658 190.074 337.592C189.359 339.64 188.394 342.622 187.257 346.32C184.973 353.725 182.146 364.043 179.209 375.474C176.271 386.905 173.515 397.232 171.392 404.677C170.386 408.285 169.491 411.267 168.857 413.474C168.586 414.468 168.364 415.224 168.183 415.87C168.082 416.145 168.021 416.433 168.002 416.725Z" fill="#E0E0E0"/>
<path d="M82.0192 398.703C82.2907 398.826 82.5787 398.91 82.8743 398.952L85.3792 399.508L94.5942 401.496C102.371 403.137 113.095 405.532 124.935 408.196C136.776 410.86 147.53 413.166 155.347 414.637C159.25 415.383 162.389 415.959 164.612 416.307L167.147 416.695C167.439 416.766 167.742 416.79 168.042 416.764C167.765 416.648 167.474 416.565 167.177 416.516L164.682 415.959L155.467 414.021C147.691 412.371 136.967 409.975 125.126 407.311C113.286 404.647 102.532 402.341 94.7149 400.87C90.8116 400.125 87.6729 399.558 85.4396 399.2L82.9145 398.813C82.6229 398.734 82.3214 398.697 82.0192 398.703Z" fill="#E0E0E0"/>
<path d="M154.491 215.519C154.11 215.52 153.737 215.414 153.415 215.213C153.092 215.012 152.834 214.726 152.671 214.386L148.305 205.44C148.167 205.162 148.097 204.855 148.101 204.546C148.104 204.236 148.181 203.932 148.325 203.657C148.468 203.382 148.675 203.143 148.928 202.961C149.181 202.779 149.474 202.658 149.783 202.607C150.632 202.445 151.437 202.112 152.149 201.628C152.86 201.144 153.463 200.519 153.918 199.794C154.356 199.165 154.659 198.455 154.808 197.706C154.956 196.957 154.948 196.186 154.783 195.44C154.57 194.702 154.209 194.014 153.722 193.416C153.234 192.819 152.631 192.324 151.946 191.961C151.209 191.532 150.392 191.252 149.544 191.137C148.696 191.023 147.834 191.077 147.007 191.295C145.398 191.876 144.035 192.978 143.142 194.422C142.248 195.867 141.877 197.567 142.087 199.247C142.124 199.508 142.109 199.774 142.042 200.029C141.975 200.284 141.858 200.524 141.697 200.734C141.537 200.945 141.336 201.122 141.106 201.256C140.876 201.389 140.621 201.477 140.357 201.513C140.093 201.55 139.824 201.535 139.566 201.469C139.307 201.402 139.065 201.287 138.852 201.128C138.639 200.969 138.46 200.771 138.324 200.543C138.189 200.316 138.1 200.065 138.063 199.804C137.728 197.173 138.321 194.507 139.743 192.258C141.165 190.009 143.329 188.314 145.87 187.458C147.22 187.079 148.633 186.971 150.026 187.142C151.419 187.312 152.763 187.758 153.978 188.452C155.134 189.081 156.15 189.933 156.966 190.958C157.782 191.982 158.38 193.158 158.727 194.416C159.024 195.694 159.054 197.018 158.813 198.307C158.573 199.596 158.067 200.822 157.328 201.911C156.255 203.581 154.723 204.915 152.912 205.758L156.272 212.716C156.388 212.952 156.456 213.208 156.471 213.47C156.486 213.732 156.449 213.995 156.361 214.242C156.273 214.49 156.136 214.718 155.959 214.913C155.781 215.108 155.566 215.267 155.326 215.38C155.062 215.486 154.777 215.533 154.491 215.519Z" fill="#E0E0E0"/>
<path d="M158.837 218.103C159.002 218.485 159.013 218.914 158.87 219.304C158.727 219.694 158.44 220.016 158.066 220.205C157.693 220.394 157.26 220.436 156.856 220.323C156.453 220.21 156.107 219.949 155.89 219.594C155.772 219.402 155.695 219.187 155.665 218.964C155.634 218.741 155.651 218.514 155.713 218.297C155.775 218.08 155.882 217.879 156.027 217.705C156.171 217.531 156.35 217.388 156.553 217.285C156.756 217.183 156.978 217.122 157.206 217.108C157.433 217.094 157.661 217.126 157.876 217.203C158.09 217.28 158.286 217.4 158.451 217.554C158.617 217.709 158.748 217.896 158.837 218.103Z" fill="#E0E0E0"/>
<path d="M99.2017 185.46C98.9343 185.461 98.6721 185.387 98.4459 185.246C98.2196 185.105 98.0386 184.904 97.924 184.665L94.906 178.403C94.8094 178.21 94.7591 177.997 94.7591 177.782C94.7591 177.566 94.8094 177.354 94.906 177.16C95.0037 176.969 95.1457 176.802 95.3204 176.674C95.4951 176.547 95.6978 176.461 95.912 176.425C96.5041 176.307 97.0652 176.069 97.5602 175.727C98.0552 175.385 98.4736 174.946 98.7892 174.437C99.0908 173.996 99.2996 173.499 99.4033 172.977C99.507 172.454 99.5034 171.916 99.3928 171.395C99.2414 170.877 98.9849 170.395 98.639 169.978C98.2931 169.561 97.8651 169.218 97.3808 168.97C96.866 168.669 96.2956 168.473 95.7031 168.393C95.1106 168.313 94.5079 168.35 93.9302 168.503C92.808 168.919 91.8618 169.7 91.2461 170.716C90.6304 171.732 90.3815 172.925 90.54 174.099C90.592 174.465 90.4946 174.837 90.2691 175.133C90.0437 175.428 89.7087 175.623 89.3378 175.674C88.967 175.726 88.5906 175.63 88.2916 175.407C87.9926 175.184 87.7953 174.853 87.7433 174.487C87.5092 172.651 87.9213 170.791 88.9105 169.22C89.8996 167.649 91.4057 166.462 93.1757 165.859C94.1192 165.599 95.1059 165.529 96.0772 165.654C97.0485 165.779 97.9844 166.095 98.8294 166.584C99.6415 167.024 100.355 167.621 100.927 168.34C101.5 169.059 101.919 169.886 102.159 170.769C102.362 171.662 102.377 172.587 102.204 173.486C102.031 174.385 101.674 175.24 101.153 175.997C100.413 177.134 99.368 178.045 98.1353 178.632L100.479 183.462C100.561 183.627 100.609 183.805 100.621 183.988C100.632 184.171 100.607 184.354 100.546 184.527C100.485 184.7 100.39 184.859 100.266 184.996C100.143 185.132 99.9927 185.243 99.8254 185.321C99.6299 185.411 99.4172 185.459 99.2017 185.46Z" fill="#F5F5F5"/>
<path d="M102.24 187.26C102.318 187.514 102.304 187.787 102.2 188.032C102.096 188.278 101.909 188.479 101.67 188.603C101.432 188.727 101.158 188.764 100.894 188.709C100.631 188.655 100.395 188.511 100.228 188.303C100.122 188.172 100.046 188.018 100.007 187.855C99.9675 187.691 99.9653 187.52 100 187.356C100.035 187.191 100.107 187.036 100.21 186.902C100.312 186.767 100.444 186.657 100.595 186.579C100.746 186.5 100.912 186.456 101.082 186.449C101.253 186.442 101.422 186.471 101.579 186.537C101.737 186.602 101.877 186.7 101.991 186.825C102.106 186.95 102.19 187.098 102.24 187.26Z" fill="#F5F5F5"/>
<path d="M350.219 188.86C350.334 189.099 350.378 189.364 350.346 189.627C350.314 189.889 350.207 190.137 350.038 190.341L345.611 195.739C345.472 195.905 345.297 196.038 345.098 196.128C344.899 196.217 344.683 196.261 344.464 196.256C344.246 196.25 344.033 196.194 343.841 196.092C343.649 195.99 343.483 195.845 343.358 195.669C343.004 195.189 342.553 194.786 342.034 194.486C341.514 194.187 340.937 193.997 340.34 193.93C339.811 193.846 339.271 193.87 338.752 194C338.233 194.13 337.746 194.363 337.322 194.685C336.912 195.038 336.578 195.469 336.341 195.952C336.104 196.436 335.969 196.961 335.944 197.498C335.885 198.083 335.943 198.674 336.116 199.237C336.289 199.8 336.572 200.324 336.95 200.778C337.804 201.606 338.917 202.125 340.107 202.251C341.297 202.378 342.496 202.104 343.509 201.474C343.66 201.344 343.837 201.247 344.029 201.19C344.221 201.132 344.423 201.116 344.621 201.142C344.82 201.168 345.011 201.236 345.181 201.341C345.351 201.446 345.496 201.585 345.607 201.75C345.719 201.915 345.793 202.101 345.825 202.296C345.858 202.492 345.848 202.692 345.796 202.883C345.744 203.074 345.651 203.252 345.524 203.405C345.397 203.558 345.238 203.683 345.058 203.77C343.481 204.766 341.605 205.195 339.745 204.985C337.886 204.775 336.156 203.939 334.847 202.617C334.206 201.884 333.72 201.031 333.418 200.109C333.116 199.187 333.003 198.215 333.087 197.25C333.144 196.339 333.387 195.449 333.8 194.632C334.213 193.816 334.788 193.09 335.491 192.498C336.219 191.931 337.057 191.517 337.953 191.283C338.85 191.049 339.785 190.999 340.702 191.136C342.062 191.309 343.345 191.857 344.404 192.717L347.814 188.552C347.931 188.405 348.076 188.283 348.241 188.193C348.406 188.103 348.588 188.046 348.776 188.027C348.963 188.007 349.153 188.025 349.334 188.08C349.514 188.134 349.682 188.224 349.826 188.343C349.994 188.485 350.128 188.661 350.219 188.86Z" fill="#F5F5F5"/>
<path d="M350.571 185.361C350.71 185.182 350.9 185.047 351.117 184.974C351.334 184.902 351.568 184.894 351.789 184.953C352.01 185.011 352.209 185.133 352.359 185.304C352.51 185.474 352.607 185.684 352.636 185.909C352.666 186.133 352.627 186.361 352.526 186.564C352.424 186.767 352.264 186.935 352.065 187.048C351.867 187.161 351.639 187.212 351.411 187.197C351.182 187.182 350.963 187.1 350.782 186.962C350.661 186.871 350.559 186.757 350.483 186.627C350.407 186.498 350.357 186.354 350.338 186.205C350.318 186.056 350.329 185.905 350.369 185.76C350.409 185.615 350.477 185.48 350.571 185.361Z" fill="#F5F5F5"/>
<path d="M335.471 59.1728C335.584 59.4117 335.626 59.6771 335.594 59.9389C335.562 60.2007 335.457 60.4483 335.29 60.6538L330.863 66.0513C330.726 66.2184 330.551 66.3518 330.352 66.4413C330.154 66.5307 329.937 66.5738 329.719 66.567C329.501 66.5603 329.288 66.504 329.095 66.4025C328.903 66.3009 328.737 66.157 328.61 65.9817C328.254 65.5029 327.803 65.1014 327.284 64.8022C326.765 64.503 326.189 64.3123 325.592 64.2422C325.063 64.1617 324.522 64.188 324.004 64.3196C323.485 64.4511 322.999 64.6852 322.574 65.0076C322.165 65.359 321.832 65.7884 321.595 66.2701C321.358 66.7518 321.223 67.2758 321.196 67.8106C321.136 68.3959 321.195 68.987 321.367 69.55C321.54 70.1129 321.823 70.6366 322.202 71.0908C323.052 71.9228 324.163 72.4447 325.353 72.5711C326.543 72.6975 327.741 72.4209 328.751 71.7866C329.064 71.6077 329.434 71.5537 329.787 71.6358C330.139 71.7179 330.446 71.9298 330.645 72.2282C330.844 72.5266 330.92 72.8889 330.858 73.2411C330.796 73.5932 330.6 73.9085 330.31 74.1225C328.732 75.1188 326.855 75.5471 324.995 75.3353C323.135 75.1234 321.406 74.2844 320.099 72.9596C319.454 72.2288 318.965 71.3764 318.663 70.4539C318.36 69.5313 318.25 68.5578 318.339 67.592C318.397 66.6813 318.64 65.7916 319.053 64.9754C319.466 64.1593 320.041 63.4334 320.743 62.8406C321.47 62.2755 322.307 61.8632 323.201 61.629C324.096 61.3949 325.029 61.3438 325.944 61.4789C327.301 61.6601 328.582 62.2069 329.646 63.0593L333.056 58.8945C333.174 58.7489 333.319 58.6278 333.484 58.5384C333.649 58.4489 333.831 58.3928 334.018 58.3734C334.205 58.354 334.395 58.3716 334.575 58.4252C334.755 58.4788 334.923 58.5674 335.068 58.6857C335.236 58.8182 335.373 58.9842 335.471 59.1728Z" fill="#F5F5F5"/>
<path d="M335.823 55.664C335.962 55.4844 336.152 55.3497 336.369 55.277C336.586 55.2043 336.82 55.1967 337.041 55.2554C337.262 55.314 337.461 55.4362 337.611 55.6064C337.762 55.7766 337.859 55.9872 337.888 56.2116C337.918 56.4359 337.879 56.6639 337.778 56.8666C337.676 57.0694 337.516 57.2378 337.317 57.3505C337.119 57.4632 336.891 57.5152 336.663 57.4999C336.434 57.4845 336.215 57.4025 336.034 57.2643C335.792 57.0795 335.633 56.8072 335.594 56.5073C335.554 56.2073 335.637 55.904 335.823 55.664Z" fill="#F5F5F5"/>
<path d="M223.785 79.1123C224.127 79.11 224.464 79.2016 224.757 79.3771C225.05 79.5526 225.288 79.8051 225.445 80.1063L229.368 88.277C229.495 88.5287 229.561 88.806 229.561 89.0871C229.561 89.3683 229.495 89.6456 229.368 89.8973C229.244 90.1542 229.059 90.3782 228.83 90.5511C228.601 90.7239 228.334 90.8405 228.05 90.8913C227.293 91.0357 226.574 91.3304 225.936 91.7575C225.298 92.1847 224.754 92.7354 224.338 93.3763C223.936 93.9496 223.659 94.5985 223.522 95.2825C223.385 95.9666 223.392 96.6711 223.543 97.3523C223.736 98.0228 224.064 98.6482 224.506 99.1913C224.948 99.7343 225.497 100.184 226.119 100.513C226.789 100.903 227.53 101.158 228.3 101.263C229.07 101.369 229.853 101.324 230.605 101.129C232.066 100.6 233.303 99.5978 234.114 98.2857C234.925 96.9736 235.263 95.429 235.072 93.9031C235.039 93.6675 235.053 93.4277 235.114 93.1976C235.175 92.9674 235.281 92.7513 235.426 92.5616C235.571 92.3719 235.753 92.2124 235.961 92.0921C236.168 91.9718 236.398 91.893 236.636 91.8604C236.875 91.8278 237.117 91.8419 237.35 91.9019C237.583 91.9619 237.802 92.0667 237.994 92.2102C238.186 92.3537 238.347 92.5332 238.469 92.7384C238.591 92.9436 238.671 93.1705 238.704 93.4061C239.01 95.7884 238.478 98.2024 237.195 100.242C235.913 102.282 233.959 103.824 231.662 104.608C230.435 104.948 229.151 105.04 227.887 104.877C226.624 104.715 225.406 104.302 224.308 103.664C223.256 103.09 222.332 102.313 221.59 101.379C220.849 100.445 220.305 99.373 219.992 98.227C219.722 97.0721 219.694 95.8747 219.911 94.7088C220.127 93.5429 220.583 92.4331 221.25 91.4479C222.216 89.9711 223.577 88.7876 225.183 88.0285L222.165 81.7564C222.059 81.5426 221.997 81.3101 221.983 81.0725C221.969 80.835 222.003 80.5969 222.082 80.3723C222.162 80.1476 222.286 79.9408 222.447 79.7638C222.608 79.5867 222.803 79.443 223.02 79.341C223.254 79.2079 223.516 79.1297 223.785 79.1123Z" fill="#E0E0E0"/>
<path d="M219.841 76.7667C219.667 76.4164 219.638 76.0128 219.76 75.6417C219.882 75.2706 220.146 74.9611 220.495 74.7787C220.849 74.6016 221.259 74.5701 221.636 74.6912C222.013 74.8123 222.326 75.0761 222.507 75.4248C222.597 75.5984 222.651 75.7878 222.667 75.9822C222.683 76.1765 222.66 76.3721 222.599 76.5576C222.538 76.7431 222.441 76.915 222.313 77.0634C222.185 77.2119 222.029 77.334 221.853 77.4227C221.677 77.5115 221.486 77.5652 221.289 77.5808C221.092 77.5963 220.894 77.5735 220.707 77.5135C220.519 77.4535 220.345 77.3575 220.195 77.2311C220.045 77.1047 219.921 76.9502 219.831 76.7766L219.841 76.7667Z" fill="#E0E0E0"/>
<path d="M360.259 239.941C360.601 239.939 360.938 240.031 361.231 240.206C361.524 240.382 361.762 240.634 361.919 240.935L365.872 249.076C365.999 249.328 366.065 249.605 366.065 249.886C366.065 250.168 365.999 250.445 365.872 250.697C365.748 250.953 365.563 251.178 365.334 251.35C365.105 251.523 364.838 251.64 364.554 251.691C363.79 251.836 363.065 252.135 362.423 252.57C361.78 253.004 361.236 253.564 360.822 254.215C360.42 254.789 360.143 255.438 360.006 256.122C359.869 256.806 359.876 257.51 360.027 258.191C360.22 258.862 360.548 259.487 360.99 260.03C361.432 260.573 361.981 261.023 362.603 261.352C363.273 261.742 364.014 261.997 364.784 262.102C365.554 262.208 366.337 262.163 367.089 261.968C368.55 261.439 369.787 260.437 370.598 259.125C371.409 257.813 371.747 256.268 371.556 254.742C371.489 254.266 371.617 253.784 371.91 253.401C372.203 253.018 372.639 252.765 373.12 252.699C373.602 252.634 374.09 252.759 374.478 253.049C374.866 253.339 375.121 253.769 375.188 254.245C375.494 256.627 374.962 259.041 373.679 261.081C372.397 263.121 370.443 264.663 368.146 265.447C366.919 265.787 365.635 265.879 364.371 265.716C363.108 265.554 361.89 265.142 360.792 264.503C359.74 263.929 358.816 263.152 358.074 262.218C357.333 261.284 356.789 260.212 356.476 259.066C356.206 257.907 356.18 256.705 356.4 255.535C356.62 254.366 357.08 253.253 357.754 252.267C358.72 250.79 360.082 249.607 361.687 248.848L358.669 242.576C358.563 242.362 358.502 242.129 358.487 241.892C358.473 241.654 358.507 241.416 358.586 241.191C358.666 240.967 358.79 240.76 358.951 240.583C359.112 240.406 359.307 240.262 359.524 240.16C359.75 240.035 360.001 239.96 360.259 239.941Z" fill="#E0E0E0"/>
<path d="M356.315 237.566C356.141 237.216 356.112 236.812 356.234 236.441C356.356 236.07 356.62 235.76 356.969 235.578C357.323 235.401 357.733 235.369 358.11 235.49C358.487 235.612 358.8 235.875 358.981 236.224C359.162 236.575 359.196 236.982 359.073 237.357C358.95 237.732 358.682 238.043 358.327 238.222C357.972 238.401 357.56 238.434 357.181 238.313C356.802 238.192 356.487 237.927 356.305 237.576L356.315 237.566Z" fill="#E0E0E0"/>
<path d="M387.722 292.554C387.722 292.554 379.986 286.679 368.709 305.168C357.432 323.656 352.875 334.451 352.875 334.451C352.875 334.451 349.967 338.288 347.362 335.445C344.756 332.602 341.477 324.899 336.628 325.903C331.598 326.946 329.586 332.264 329.948 340.316C330.31 348.367 330.451 366.02 330.461 367.621C330.471 369.221 329.395 371.418 327.312 369.778C325.23 368.138 313.6 353.377 306.83 359.241C300.06 365.106 304.818 387.362 305.271 389.807C305.723 392.252 305.19 393.246 303.993 393.783C302.796 394.32 299.376 388.962 295.895 384.897C292.414 380.831 287.656 376.716 284.044 380.424C280.433 384.131 278.179 400.413 292.022 428.136L299.285 440.551L313.862 440.779C345.048 439.388 358.448 429.577 359.987 424.657C361.526 419.736 355.581 417.609 350.299 416.565C345.018 415.522 338.63 415.124 338.509 413.842C338.388 412.56 338.992 411.605 341.386 410.86C343.78 410.114 365.792 403.445 367.733 394.757C369.675 386.069 350.953 383.157 348.488 382.143C346.024 381.129 347.482 379.161 348.881 378.376C350.279 377.591 365.983 369.201 373.337 365.633C380.69 362.064 384.403 357.75 382.884 352.9C381.435 348.218 373.005 349.103 369.242 348.208C365.48 347.313 367.492 342.93 367.492 342.93C367.492 342.93 374.866 333.775 385.801 315.098C396.736 296.421 387.551 292.504 387.551 292.504" fill="#EBEBEB"/>
<path d="M377.592 309.134L377.381 309.541C377.22 309.81 377.009 310.197 376.727 310.694L374.172 315.098C371.948 318.945 368.699 324.501 364.655 331.34C356.607 345.037 345.229 363.854 332.644 384.598C320.059 405.343 308.681 424.15 300.522 437.797L290.875 453.97C289.748 455.868 288.863 457.349 288.249 458.363L287.565 459.506L287.314 459.884C287.377 459.748 287.447 459.615 287.525 459.486L288.179 458.323L290.724 453.88C292.947 450.033 296.197 444.487 300.251 437.638C308.299 423.951 319.667 405.124 332.262 384.37C344.857 363.615 356.215 344.828 364.373 331.181L374.021 315.008C375.158 313.11 376.033 311.629 376.646 310.615C376.948 310.128 377.17 309.75 377.341 309.472L377.592 309.134Z" fill="#E0E0E0"/>
<path d="M340.783 336.906C340.921 337.225 341.023 337.559 341.084 337.9C341.245 338.556 341.457 339.491 341.698 340.664C342.191 342.99 342.784 346.23 343.378 349.818C343.972 353.407 344.464 356.558 344.857 359.013C345.038 360.106 345.199 361.001 345.32 361.786C345.398 362.112 345.442 362.445 345.45 362.78C345.317 362.459 345.216 362.126 345.149 361.786C344.988 361.14 344.776 360.196 344.545 359.023C344.072 356.687 343.539 353.436 342.935 349.848C342.332 346.26 341.799 343.119 341.386 340.683C341.195 339.58 341.044 338.695 340.913 337.9C340.835 337.574 340.791 337.241 340.783 336.906Z" fill="#E0E0E0"/>
<path d="M346.768 363.168C346.768 363.048 353.448 361.537 361.737 359.808C370.027 358.078 376.827 356.756 376.827 356.826C376.827 356.895 370.148 358.456 361.848 360.186C353.549 361.915 346.788 363.287 346.768 363.168Z" fill="#E0E0E0"/>
<path d="M325.944 394.171C326.298 394.133 326.656 394.133 327.01 394.171L329.918 394.389C332.372 394.568 335.763 394.797 339.505 394.916C343.247 395.035 346.647 395.045 349.112 395.025H352.02C352.377 394.979 352.739 394.979 353.096 395.025C352.745 395.102 352.388 395.145 352.03 395.155C351.345 395.204 350.35 395.264 349.112 395.314C346.658 395.413 343.247 395.463 339.495 395.314C335.742 395.165 332.342 394.916 329.888 394.658C328.66 394.518 327.674 394.399 326.99 394.3C326.638 394.294 326.287 394.251 325.944 394.171Z" fill="#E0E0E0"/>
<path d="M315.28 371.597C315.487 371.852 315.659 372.133 315.793 372.432C316.125 373.078 316.548 373.863 317.031 374.797C318.037 376.785 319.445 379.588 320.964 382.67C322.483 385.751 323.821 388.564 324.767 390.622C325.21 391.616 325.582 392.391 325.874 393.047C326.032 393.335 326.151 393.643 326.226 393.962C326.033 393.699 325.864 393.42 325.723 393.127L324.485 390.761C323.479 388.773 322.061 385.97 320.552 382.889C319.043 379.807 317.695 376.994 316.739 374.937L315.633 372.511C315.485 372.219 315.367 371.912 315.28 371.597Z" fill="#E0E0E0"/>
<path d="M293.42 396.656C293.663 396.998 293.875 397.36 294.054 397.739L295.653 400.721C296.991 403.286 298.792 406.844 300.774 410.781C302.756 414.717 304.516 418.285 305.804 420.889L307.273 423.971C307.464 424.346 307.625 424.735 307.756 425.134C307.506 424.794 307.291 424.431 307.112 424.05L305.512 421.068C304.184 418.504 302.373 414.955 300.402 411.019C298.43 407.083 296.659 403.504 295.372 400.91L293.903 397.819C293.701 397.449 293.539 397.059 293.42 396.656Z" fill="#E0E0E0"/>
<path d="M307.574 424.438C308.026 424.399 308.481 424.399 308.933 424.438L312.625 424.577C315.743 424.696 320.049 424.835 324.807 424.865C329.566 424.895 333.861 424.816 337 424.726L340.692 424.637C341.144 424.596 341.598 424.596 342.05 424.637C341.606 424.723 341.155 424.773 340.702 424.786C339.837 424.865 338.569 424.945 337.01 425.024C333.891 425.183 329.576 425.323 324.807 425.283C320.039 425.243 315.753 425.064 312.615 424.875C311.055 424.766 309.788 424.676 308.922 424.587C308.47 424.575 308.019 424.525 307.574 424.438Z" fill="#E0E0E0"/>
<path d="M346.949 395.165L331.628 322.96C331.628 322.96 322.644 288.17 291.72 276.163L289.587 275.517L286.569 274.612C285.322 274.135 280.251 272.545 278.913 272.127C237.225 257.853 226.159 261.571 182.72 276.213C182.72 276.213 163.415 281.352 154.059 306.221C144.703 331.091 126.806 370.006 126.806 370.006L170.145 385.135L178.454 372.939V456.365H297.665L294.376 417.957L293.802 370.653" fill="#FFC107"/>
<path d="M225.606 280.646C225.311 280.991 224.973 281.298 224.6 281.56C224.201 281.917 223.781 282.248 223.342 282.554C222.783 282.978 222.202 283.372 221.602 283.737C220.051 284.709 218.419 285.547 216.723 286.242C214.637 287.078 212.479 287.724 210.274 288.17C208.061 288.575 205.815 288.781 203.564 288.787C201.729 288.771 199.898 288.602 198.091 288.28C197.307 288.17 196.633 287.971 196.029 287.832C195.506 287.723 194.992 287.576 194.49 287.395C194.05 287.285 193.625 287.125 193.222 286.918C193.222 286.818 195.084 287.455 198.152 287.912C199.944 288.173 201.753 288.303 203.564 288.299C205.782 288.269 207.994 288.05 210.174 287.643C212.346 287.207 214.476 286.589 216.542 285.795C218.222 285.123 219.849 284.329 221.411 283.419C224.087 281.829 225.545 280.566 225.606 280.646Z" fill="#FAFAFA"/>
<g opacity="0.3">
<path d="M178.495 404.687L188.263 415.84H197.87V427.976L297.213 450.679L296.408 441.226L202.94 409.518H187.277L179.732 403.554L178.495 404.687Z" fill="black"/>
</g>
<path d="M207.749 394.757L199.46 393.246C199.46 393.246 179.822 372.014 176.141 371.756C173.123 371.507 156.393 371.666 150.578 371.756C150.044 371.756 149.533 371.965 149.155 372.338C148.778 372.711 148.566 373.216 148.566 373.744C148.566 374.261 148.77 374.758 149.134 375.129C149.498 375.5 149.995 375.716 150.518 375.732L170.255 376.487L170.346 378.058L150.578 378.316C148.566 378.465 147.278 381.616 153.727 382.183L170.255 382.769V383.763L153.495 386.079C152.64 386.199 150.417 386.626 150.397 387.471C150.397 387.471 149.391 389.548 154.159 390.135C155.799 390.334 170.346 389.856 170.346 389.856L169.793 391.149L154.703 394.359C154.173 394.472 153.707 394.779 153.397 395.218C153.087 395.657 152.957 396.195 153.033 396.725C153.108 397.264 153.39 397.753 153.821 398.092C154.252 398.431 154.798 398.593 155.347 398.544L171.443 397.063L187.277 409.528H208.403L207.749 394.757Z" fill="#FFBE9D"/>
<path d="M346.949 395.164L298.732 404.538L293.843 370.652" fill="#FFC107"/>
<path d="M292.313 396.457L202.94 393.624V424.14L262.234 435.78L303.882 442.33C329.757 442.33 350.45 418.862 346.446 393.624H346.336L292.313 396.457Z" fill="#FFC107"/>
<path d="M316.89 395.9C316.507 395.954 316.12 395.981 315.733 395.979L312.413 396.069L300.19 396.288C289.879 396.437 275.624 396.606 259.87 396.457C244.116 396.307 229.861 395.741 219.56 395.055C214.409 394.717 210.244 394.389 207.377 394.061L204.067 393.723C203.681 393.699 203.298 393.646 202.92 393.564C203.309 393.533 203.699 393.533 204.087 393.564L207.397 393.773C210.274 393.972 214.439 394.23 219.59 394.508C229.891 395.065 244.136 395.552 259.88 395.711C275.624 395.87 289.869 395.711 300.19 395.711H312.413H315.733C316.124 395.734 316.512 395.798 316.89 395.9Z" fill="#263238"/>
<path d="M202.95 393.882C202.964 394.061 202.964 394.24 202.95 394.419C202.95 394.803 202.95 395.33 202.95 396C202.95 397.421 202.95 399.449 203.011 402.023C203.011 407.242 203.071 414.657 203.121 423.593L202.94 423.374C213 425.511 225.133 428.165 238.15 430.859C255.997 434.597 272.254 437.539 284.064 439.348C289.98 440.242 294.768 440.899 298.088 441.336L301.901 441.833L302.907 441.972C303.02 441.979 303.132 442.002 303.239 442.042H302.897L301.891 441.952L298.058 441.555C294.738 441.177 289.929 440.561 283.974 439.726C272.133 438.016 255.856 435.123 237.999 431.386C224.972 428.692 212.849 426.008 202.789 423.822H202.618V423.653C202.618 414.707 202.679 407.301 202.699 402.083C202.699 399.508 202.699 397.481 202.759 396.059C202.759 395.397 202.759 394.87 202.759 394.479C202.791 394.271 202.855 394.07 202.95 393.882Z" fill="#263238"/>
<path d="M195.315 310.406C195.288 309.908 195.308 309.409 195.375 308.915C195.446 307.921 195.536 306.579 195.576 304.87C195.695 300.42 195.381 295.97 194.641 291.58C193.725 286.471 192.569 281.809 190.768 278.906C190.086 277.749 189.18 276.735 188.102 275.924C187.317 275.378 186.814 275.169 186.834 275.129C186.854 275.089 186.975 275.129 187.217 275.248C187.568 275.385 187.904 275.555 188.223 275.755C189.382 276.537 190.359 277.553 191.09 278.737C192.156 280.471 192.969 282.345 193.504 284.304C195.466 290.992 196.295 297.954 195.959 304.909C195.868 306.619 195.717 308.011 195.597 308.955C195.551 309.447 195.456 309.933 195.315 310.406Z" fill="#263238"/>
<path d="M293.591 283.578C293.742 283.578 293.853 303.866 293.853 328.895C293.853 353.924 293.742 374.211 293.591 374.211C293.44 374.211 293.329 353.924 293.329 328.895C293.329 303.866 293.45 283.578 293.591 283.578Z" fill="#263238"/>
<path d="M324.435 385.503C324.435 385.592 322.916 385.553 320.502 385.841C319.087 386.022 317.686 386.29 316.307 386.646C314.629 387.103 312.988 387.681 311.397 388.376C309.813 389.099 308.286 389.94 306.83 390.891C305.65 391.674 304.525 392.534 303.46 393.465C301.639 395.065 300.673 396.218 300.593 396.159C300.769 395.853 300.979 395.566 301.217 395.304C301.84 394.558 302.512 393.855 303.229 393.197C304.272 392.21 305.392 391.306 306.579 390.493C308.044 389.509 309.589 388.645 311.196 387.909C312.821 387.197 314.504 386.622 316.226 386.189C317.63 385.842 319.06 385.606 320.502 385.483C321.467 385.386 322.439 385.356 323.409 385.394C323.754 385.388 324.099 385.424 324.435 385.503Z" fill="#263238"/>
<g opacity="0.3">
<path d="M196.17 389.727C211.26 380.841 220.636 366.13 229.821 351.359C239.005 336.588 247.567 321.092 260.303 309.184C266.147 303.707 272.988 299.095 275.151 291.421L252.255 309.402L188.474 381.875L196.17 389.727Z" fill="black"/>
</g>
<path d="M154.803 350.882C154.803 351.071 151.202 350.932 147.087 352.323C145.34 352.944 143.639 353.685 141.997 354.54C141.334 354.945 140.629 355.278 139.894 355.534C140.478 355.02 141.123 354.579 141.816 354.222C143.428 353.254 145.137 352.454 146.916 351.836C148.709 351.235 150.578 350.884 152.469 350.793C153.247 350.706 154.034 350.736 154.803 350.882Z" fill="#263238"/>
<path d="M154.803 350.882C154.803 351.071 151.202 350.932 147.087 352.323C145.34 352.944 143.639 353.685 141.997 354.54C141.334 354.945 140.629 355.278 139.894 355.534C140.478 355.02 141.123 354.579 141.816 354.222C143.428 353.254 145.137 352.454 146.916 351.836C148.709 351.235 150.578 350.884 152.469 350.793C153.247 350.706 154.034 350.736 154.803 350.882Z" fill="#263238"/>
<path d="M293.209 383.326C292.136 382.635 290.967 382.103 289.738 381.746C287.374 381.02 283.702 381.03 279.447 382.382C275.191 383.734 270.765 386.606 265.292 388.853C262.442 390.087 259.348 390.674 256.238 390.572C252.904 390.258 249.67 389.277 246.732 387.69C243.714 386.179 240.846 384.489 237.959 383.167C235.195 381.848 232.22 381.014 229.167 380.702C223.982 380.221 218.763 381.153 214.077 383.396C210.909 384.87 208.061 386.936 205.687 389.479L204.59 390.702L203.866 391.696L203.413 392.272L203.242 392.461C203.27 392.382 203.311 392.308 203.363 392.242C203.474 392.083 203.614 391.885 203.775 391.636L204.47 390.642L205.536 389.39C207.875 386.759 210.725 384.62 213.916 383.098C216.101 382.017 218.421 381.228 220.817 380.752C223.566 380.173 226.388 380.009 229.187 380.265C232.283 380.564 235.303 381.395 238.11 382.72C241.038 384.062 243.885 385.752 246.903 387.243C249.779 388.801 252.944 389.768 256.208 390.085C259.255 390.2 262.288 389.633 265.081 388.425C270.493 386.239 274.97 383.267 279.306 382.054C283.642 380.841 287.354 380.772 289.758 381.567C290.68 381.842 291.56 382.24 292.374 382.75L292.987 383.187C293.148 383.267 293.219 383.316 293.209 383.326Z" fill="#FAFAFA"/>
<path d="M336.909 346.558C336.319 346.384 335.712 346.271 335.099 346.22C333.417 346.245 331.777 346.741 330.37 347.651C328.509 348.645 326.719 350.554 324.184 351.955C322.852 352.73 321.322 353.11 319.777 353.049C318.15 352.884 316.575 352.39 315.15 351.598C313.671 350.862 312.303 350.037 310.884 349.48C309.524 348.927 308.102 348.534 306.649 348.307C305.336 348.098 304.004 348.028 302.675 348.099C301.513 348.135 300.357 348.285 299.225 348.546C297.577 348.903 295.982 349.464 294.476 350.216C293.4 350.753 292.857 351.12 292.826 351.081C292.796 351.041 292.947 350.961 293.199 350.782C293.574 350.512 293.967 350.266 294.376 350.047C296.912 348.64 299.741 347.827 302.645 347.671C305.522 347.485 308.404 347.943 311.075 349.013C312.544 349.58 313.932 350.405 315.381 351.13C316.745 351.89 318.251 352.37 319.807 352.542C321.257 352.61 322.696 352.265 323.952 351.548C326.407 350.216 328.248 348.367 330.179 347.343C331.655 346.434 333.37 345.977 335.109 346.031C335.578 346.068 336.04 346.175 336.477 346.349C336.629 346.401 336.774 346.472 336.909 346.558Z" fill="#FAFAFA"/>
<path d="M292.666 332.99C292.434 332.971 292.205 332.931 291.981 332.87C291.76 332.87 291.489 332.751 291.157 332.701L290.03 332.552C287.614 332.35 285.181 332.596 282.857 333.278C279.422 334.329 276.131 335.795 273.059 337.642C269.32 340.005 265.417 342.105 261.379 343.924C259.251 344.827 257.006 345.436 254.709 345.733C252.554 345.992 250.369 345.844 248.271 345.295C246.402 344.755 244.589 344.04 242.858 343.158C241.229 342.363 239.74 341.578 238.352 340.932C236.203 339.823 233.861 339.125 231.45 338.874C230.779 338.835 230.106 338.855 229.438 338.934C229.211 338.956 228.982 338.956 228.754 338.934C228.972 338.857 229.198 338.807 229.428 338.785C230.092 338.667 230.766 338.614 231.44 338.626C233.895 338.802 236.289 339.461 238.482 340.564C239.901 341.19 241.4 341.956 243.029 342.731C244.739 343.584 246.528 344.273 248.371 344.788C250.413 345.308 252.536 345.443 254.629 345.186C256.881 344.894 259.082 344.295 261.168 343.407C265.493 341.647 269.216 339.202 272.797 337.204C275.915 335.356 279.259 333.907 282.746 332.89C285.113 332.23 287.588 332.038 290.03 332.324L291.167 332.523C291.499 332.592 291.76 332.682 291.981 332.741C292.217 332.801 292.447 332.884 292.666 332.99Z" fill="#FAFAFA"/>
<path d="M323.821 302.375C323.49 302.623 323.128 302.83 322.745 302.991C322.031 303.359 321.005 303.875 319.727 304.442C318.188 305.121 316.593 305.667 314.958 306.072C312.941 306.574 310.849 306.715 308.782 306.49C306.589 306.261 304.566 305.804 302.746 305.555C301.112 305.295 299.449 305.265 297.806 305.466C296.295 305.678 294.848 306.207 293.561 307.016C293.561 307.016 293.631 306.917 293.782 306.778C294.021 306.583 294.273 306.403 294.537 306.241C295.529 305.666 296.62 305.278 297.756 305.098C299.423 304.854 301.118 304.854 302.786 305.098C304.677 305.327 306.709 305.774 308.822 305.993C313.138 306.5 316.96 305.138 319.576 304.124C320.894 303.607 321.95 303.13 322.685 302.832C323.047 302.642 323.428 302.488 323.821 302.375Z" fill="#FAFAFA"/>
<path d="M193.746 318.925C193.178 318.694 192.577 318.553 191.965 318.507C190.277 318.542 188.651 319.137 187.347 320.197C186.482 320.803 185.577 321.559 184.5 322.255C183.341 322.998 182.046 323.511 180.688 323.766C177.569 324.203 174.388 323.826 171.463 322.672C168.344 321.559 165.557 320.147 162.881 319.213C161.628 318.775 160.339 318.442 159.028 318.219C157.887 318.021 156.726 317.951 155.568 318.01C153.881 318.065 152.229 318.5 150.739 319.283C149.733 319.859 149.22 320.326 149.19 320.277C149.16 320.227 149.29 320.147 149.522 319.929C149.865 319.615 150.239 319.335 150.638 319.094C152.129 318.225 153.809 317.723 155.538 317.633C156.727 317.552 157.921 317.602 159.099 317.782C160.441 317.997 161.76 318.329 163.042 318.776C165.759 319.69 168.565 321.102 171.644 322.195C174.482 323.318 177.566 323.699 180.597 323.298C181.902 323.073 183.149 322.597 184.269 321.897C185.325 321.241 186.281 320.505 187.136 319.909C188.511 318.835 190.223 318.272 191.975 318.318C192.447 318.347 192.909 318.469 193.333 318.676C193.485 318.734 193.624 318.818 193.746 318.925Z" fill="#FAFAFA"/>
<path d="M250.414 395.065C250.414 395.065 250.534 395.144 250.735 395.333C251.028 395.617 251.294 395.927 251.53 396.258C252.615 397.79 253.222 399.601 253.278 401.47C253.333 403.339 252.834 405.182 251.842 406.774C250.504 408.911 248.22 410.611 246.943 413.066C246.347 414.265 246.17 415.625 246.44 416.933C246.721 418.169 247.16 419.365 247.748 420.491C248.844 422.658 249.86 424.766 249.82 426.714C249.831 427.474 249.667 428.227 249.341 428.915C249.016 429.604 248.536 430.211 247.939 430.69C247.608 430.935 247.232 431.114 246.832 431.217C246.55 431.266 246.41 431.276 246.4 431.217C246.91 431.055 247.389 430.809 247.818 430.491C248.352 430.01 248.775 429.421 249.058 428.764C249.341 428.107 249.477 427.398 249.458 426.684C249.458 424.855 248.452 422.847 247.315 420.67C246.695 419.513 246.231 418.28 245.937 417.002C245.638 415.585 245.826 414.109 246.47 412.808C247.153 411.579 247.999 410.446 248.985 409.438C249.88 408.511 250.698 407.514 251.43 406.456C252.601 404.649 253.089 402.491 252.808 400.363C252.636 398.922 252.141 397.536 251.359 396.307C250.796 395.502 250.373 395.095 250.414 395.065Z" fill="#FAFAFA"/>
<path d="M292.585 438.702C292.445 438.608 292.316 438.498 292.203 438.374C291.875 438.025 291.613 437.621 291.428 437.181C290.825 435.505 290.915 433.662 291.68 432.052C292.154 430.932 292.817 429.9 293.641 429C294.496 428.006 295.502 427.072 296.529 426.018C297.615 424.989 298.556 423.818 299.325 422.539C300.081 421.139 300.536 419.599 300.663 418.017C301.005 414.747 300.402 411.605 300.241 408.713C299.956 406.132 300.301 403.521 301.247 401.099C301.919 399.474 303.072 398.088 304.556 397.123C304.962 396.869 305.398 396.666 305.854 396.517C306.009 396.456 306.171 396.419 306.337 396.407C305.757 396.658 305.199 396.953 304.667 397.292C303.273 398.294 302.203 399.676 301.589 401.268C300.727 403.648 300.441 406.194 300.754 408.703C300.945 411.556 301.569 414.717 301.227 418.096C301.087 419.747 300.604 421.351 299.808 422.808C299.008 424.146 298.019 425.364 296.871 426.426C294.778 428.414 292.847 430.213 292.022 432.231C291.416 433.239 291.145 434.408 291.246 435.576C291.347 436.743 291.815 437.85 292.585 438.742V438.702Z" fill="#FAFAFA"/>
<path d="M297.776 451.882C297.428 452.158 297.05 452.395 296.649 452.588C295.511 453.157 294.27 453.495 292.997 453.582C290.985 453.748 288.959 453.525 287.032 452.926C284.494 452.12 282.065 451.012 279.799 449.626C277.095 447.935 274.227 446.517 271.238 445.392C267.737 444.318 264.01 444.191 260.443 445.024C256.501 445.984 252.655 447.298 248.955 448.95C244.959 450.787 240.791 452.231 236.511 453.264C234.312 453.718 232.057 453.842 229.821 453.632C227.64 453.4 225.52 452.78 223.563 451.803C219.72 449.904 216.642 447.151 213.503 444.904C212 443.772 210.397 442.775 208.715 441.922L207.488 441.346C207.075 441.167 206.653 441.038 206.24 440.879C205.422 440.579 204.586 440.333 203.735 440.143C200.623 439.423 197.4 439.292 194.238 439.756C191.629 440.125 189.09 440.875 186.704 441.982C186.17 442.211 185.698 442.509 185.205 442.748C184.741 442.979 184.294 443.241 183.867 443.533C183.454 443.811 183.052 444.06 182.68 444.318L181.674 445.103C181.099 445.544 180.554 446.022 180.044 446.535C179.646 446.884 179.276 447.262 178.937 447.668L178.273 448.393C178.122 448.552 178.042 448.632 178.032 448.622L178.233 448.354L178.857 447.598C179.185 447.181 179.545 446.789 179.933 446.425C180.438 445.902 180.975 445.41 181.543 444.954L182.549 444.129L183.746 443.324C184.175 443.029 184.622 442.761 185.084 442.519C185.567 442.26 186.09 441.962 186.583 441.724C188.971 440.557 191.526 439.756 194.158 439.348C197.362 438.842 200.634 438.953 203.795 439.676C204.663 439.865 205.517 440.11 206.351 440.412C206.783 440.571 207.216 440.7 207.638 440.879L208.886 441.465C210.594 442.316 212.223 443.314 213.755 444.447C216.924 446.704 219.992 449.417 223.755 451.276C225.641 452.223 227.686 452.823 229.791 453.045C231.976 453.254 234.182 453.13 236.33 452.678C240.569 451.677 244.699 450.273 248.663 448.483C252.389 446.803 256.265 445.472 260.242 444.507C263.903 443.668 267.725 443.816 271.308 444.934C274.318 446.087 277.203 447.535 279.92 449.258C282.148 450.653 284.539 451.775 287.042 452.598C288.936 453.208 290.929 453.458 292.917 453.334C294.173 453.257 295.402 452.943 296.539 452.409C297.364 452.131 297.776 451.853 297.776 451.882Z" fill="#FAFAFA"/>
<path d="M241.782 286.083C247.185 286.345 252.48 284.53 256.558 281.018C260.635 277.506 263.178 272.571 263.652 267.247C264.236 260.686 264.658 255.08 264.658 255.08C264.658 255.08 281.76 254.653 284.185 238.083C286.609 221.513 288.722 183.025 288.722 183.025C279.705 177.744 269.424 174.937 258.942 174.895C248.46 174.854 238.157 177.578 229.096 182.786L226.35 184.367L221.944 264.314C221.793 267.032 222.188 269.753 223.104 272.32C224.021 274.886 225.442 277.249 227.285 279.272C229.128 281.294 231.358 282.937 233.846 284.106C236.334 285.275 239.031 285.947 241.782 286.083Z" fill="#FFBE9D"/>
<path d="M267.073 226.632C267.073 226.443 268.542 226.344 270.916 226.324C271.529 226.324 272.022 226.264 272.103 225.946C272.204 225.349 272.134 224.736 271.902 224.177L270.674 219.296C269.014 212.338 267.958 206.662 268.32 206.583C268.682 206.503 270.332 212.06 271.972 218.998C272.354 220.688 272.727 222.308 273.089 223.898C273.377 224.719 273.377 225.612 273.089 226.433C272.972 226.649 272.805 226.835 272.603 226.977C272.4 227.118 272.167 227.211 271.922 227.248C271.588 227.294 271.249 227.294 270.916 227.248C268.511 227.029 267.063 226.811 267.073 226.632Z" fill="#263238"/>
<path d="M264.759 254.851C256.975 254.007 249.62 250.893 243.633 245.905C243.633 245.905 247.245 258.519 264.196 259.175L264.759 254.851Z" fill="#EB996E"/>
<path d="M288.501 187.239C288.501 187.239 277.938 191.603 264.91 184.257C256.359 179.446 246.239 176.773 243.875 178.393C241.51 180.013 240.545 188.939 231.692 191.076C231.692 191.076 231.34 208.183 224.479 207.199C217.618 206.215 223.412 180.003 223.412 180.003L240.716 172.787L259.297 170.361L276.499 173.721L289.728 178.085L288.501 187.239Z" fill="#263238"/>
<path d="M226.159 201.782C225.887 201.623 215.093 196.931 213.936 208.322C212.779 219.713 224.62 218.481 224.67 218.163C224.72 217.845 226.159 201.782 226.159 201.782Z" fill="#FFBE9D"/>
<path d="M221.571 213.541C221.571 213.541 221.36 213.66 221.008 213.78C220.51 213.938 219.969 213.899 219.499 213.67C218.322 213.114 217.487 211.096 217.638 209.038C217.701 208.06 217.987 207.109 218.473 206.255C218.616 205.91 218.842 205.603 219.131 205.363C219.42 205.122 219.764 204.954 220.133 204.873C220.371 204.829 220.616 204.872 220.825 204.992C221.034 205.113 221.192 205.303 221.27 205.529C221.39 205.867 221.27 206.086 221.36 206.116C221.451 206.146 221.622 205.947 221.571 205.47C221.54 205.178 221.405 204.906 221.189 204.704C220.896 204.439 220.51 204.296 220.113 204.307C219.63 204.356 219.168 204.526 218.77 204.801C218.372 205.076 218.052 205.446 217.839 205.877C217.252 206.818 216.907 207.886 216.833 208.988C216.672 211.285 217.658 213.551 219.278 214.187C219.578 214.305 219.9 214.355 220.222 214.335C220.544 214.314 220.857 214.223 221.139 214.068C221.521 213.819 221.612 213.571 221.571 213.541Z" fill="#EB996E"/>
<path d="M239.358 180.232C237.105 182.812 234.525 185.094 231.682 187.021C228.793 188.951 225.255 189.689 221.823 189.079C218.473 188.313 215.505 185.45 215.364 182.041C215.224 178.632 218.594 175.332 221.954 176.077C221.381 176.085 220.815 175.958 220.303 175.707C219.79 175.455 219.346 175.086 219.007 174.63C218.668 174.175 218.444 173.645 218.354 173.087C218.264 172.528 218.31 171.957 218.489 171.419C218.668 170.882 218.975 170.395 219.383 169.998C219.791 169.602 220.289 169.308 220.836 169.14C221.383 168.972 221.962 168.936 222.526 169.034C223.089 169.133 223.621 169.363 224.076 169.705C221.149 169.159 220.827 164.576 223.151 162.747C225.475 160.919 228.895 161.316 231.642 162.419C234.388 163.523 236.933 165.232 239.84 165.849C244.398 166.843 249.076 164.944 253.11 162.628C257.144 160.312 260.966 157.489 265.463 156.257C270.976 154.756 276.942 155.859 282.213 158.046C286.675 159.733 290.602 162.563 293.591 166.246C296.438 170.004 297.846 174.994 296.609 179.516C295.372 184.039 291.086 187.796 286.328 187.816C286.328 187.816 275.654 188.87 266.962 182.498C258.27 176.127 239.921 176.932 239.921 176.932L239.358 180.232Z" fill="#263238"/>
<path d="M223.332 166.992C223.332 166.992 223.543 167.21 223.996 167.518C224.449 167.827 225.153 168.254 226.068 168.771C228.7 170.184 231.493 171.281 234.388 172.041C238.697 173.18 243.168 173.6 247.617 173.284C252.647 172.956 257.969 171.296 263.492 170.013C269.014 168.731 274.457 168.025 279.185 169.159C283.913 170.292 287.615 173.055 289.245 176.246C290.586 178.794 290.899 181.749 290.12 184.516C289.759 185.513 289.311 186.477 288.782 187.398C288.782 187.398 289.024 187.229 289.386 186.802C289.885 186.151 290.285 185.431 290.573 184.665C291.078 183.236 291.29 181.723 291.196 180.213C291.103 178.702 290.707 177.225 290.03 175.868C288.36 172.349 284.406 169.258 279.447 168.065C274.487 166.872 268.763 167.469 263.19 168.831C257.616 170.192 252.405 171.813 247.516 172.16C243.181 172.504 238.818 172.168 234.589 171.166C227.296 169.437 223.392 166.723 223.332 166.992Z" fill="#455A64"/>
<path d="M218.101 184.576C217.98 184.635 218.352 185.749 219.6 187.17C221.258 189.014 223.467 190.288 225.907 190.808C228.347 191.328 230.891 191.067 233.171 190.063C234.901 189.287 235.706 188.422 235.615 188.313C235.525 188.204 234.539 188.741 232.859 189.307C230.7 190.015 228.388 190.138 226.164 189.665C223.94 189.191 221.886 188.137 220.213 186.613C218.906 185.401 218.302 184.476 218.101 184.576Z" fill="#455A64"/>
<path d="M221.702 178.92C221.411 179.059 222.296 181.126 224.529 182.647C226.762 184.168 229.026 184.267 229.046 183.939C229.066 183.611 227.195 183.005 225.223 181.643C223.252 180.281 222.004 178.761 221.702 178.92Z" fill="#455A64"/>
<path d="M294.164 194.824C294.315 194.824 294.647 194.297 294.728 193.273C294.814 191.922 294.457 190.58 293.71 189.445C292.964 188.31 291.867 187.443 290.583 186.971C289.577 186.633 288.953 186.703 288.923 186.852C288.823 187.18 291.197 187.846 292.676 190.112C294.154 192.379 293.822 194.824 294.164 194.824Z" fill="#263238"/>
<path d="M300.14 178.502C299.798 178.363 298.53 181.375 295.512 183.86C292.494 186.345 289.326 187.16 289.416 187.518C289.507 187.876 293.048 187.518 296.317 184.794C299.587 182.071 300.462 178.542 300.14 178.502Z" fill="#455A64"/>
<path d="M282.686 208.273C282.607 208.937 282.269 209.544 281.742 209.964C281.215 210.384 280.543 210.583 279.869 210.519C279.538 210.503 279.214 210.421 278.915 210.279C278.617 210.137 278.35 209.937 278.131 209.692C277.911 209.446 277.744 209.16 277.638 208.85C277.532 208.54 277.491 208.211 277.515 207.885C277.596 207.222 277.936 206.616 278.462 206.196C278.988 205.777 279.659 205.577 280.332 205.638C280.663 205.655 280.987 205.736 281.286 205.878C281.584 206.02 281.851 206.22 282.071 206.465C282.29 206.711 282.457 206.997 282.563 207.308C282.669 207.618 282.711 207.946 282.686 208.273Z" fill="#263238"/>
<path d="M284.698 208.054C284.336 208.342 282.575 206.662 279.809 206.314C277.042 205.966 274.829 207.07 274.568 206.702C274.447 206.533 274.849 205.976 275.815 205.45C277.123 204.787 278.604 204.537 280.06 204.734C281.504 204.909 282.852 205.54 283.903 206.533C284.698 207.288 284.879 207.925 284.698 208.054Z" fill="#263238"/>
<path d="M257.456 204.814C257.377 205.478 257.038 206.085 256.511 206.505C255.985 206.925 255.312 207.124 254.639 207.06C254.308 207.044 253.983 206.962 253.685 206.82C253.386 206.678 253.119 206.478 252.9 206.233C252.681 205.988 252.513 205.701 252.408 205.391C252.302 205.081 252.26 204.752 252.285 204.426C252.368 203.762 252.71 203.156 253.237 202.737C253.765 202.317 254.437 202.118 255.112 202.18C255.442 202.196 255.766 202.277 256.064 202.42C256.362 202.562 256.628 202.762 256.847 203.007C257.065 203.253 257.232 203.539 257.336 203.849C257.441 204.16 257.482 204.488 257.456 204.814Z" fill="#263238"/>
<path d="M259.266 204.764C258.904 205.052 257.134 203.382 254.367 203.024C251.601 202.666 249.387 203.79 249.126 203.412C249.005 203.243 249.408 202.686 250.373 202.169C251.678 201.499 253.163 201.248 254.619 201.454C256.06 201.63 257.406 202.257 258.462 203.243C259.226 203.978 259.437 204.615 259.266 204.764Z" fill="#263238"/>
<path d="M258.2 197.219C257.647 197.696 255.574 196.225 252.768 195.947C249.961 195.669 247.627 196.643 247.194 196.066C246.993 195.788 247.365 195.072 248.402 194.406C249.793 193.567 251.427 193.203 253.048 193.372C254.67 193.541 256.191 194.233 257.375 195.341C258.24 196.215 258.451 196.991 258.2 197.219Z" fill="#263238"/>
<path d="M284.527 201.782C284.648 202.11 284.165 202.656 283.159 203.084C281.824 203.59 280.378 203.741 278.965 203.521C277.553 203.301 276.224 202.719 275.111 201.831C274.286 201.116 274.004 200.46 274.215 200.181C274.698 199.625 276.761 200.589 279.376 200.957C281.992 201.324 284.245 201.076 284.527 201.782Z" fill="#263238"/>
<path d="M264.95 231.184C265.232 231.184 265.433 231.711 265.403 232.327C265.373 232.944 265.101 233.431 264.809 233.421C264.518 233.411 264.316 232.884 264.357 232.268C264.397 231.651 264.658 231.164 264.95 231.184Z" fill="#263238"/>
<path d="M224.107 222.537C224.081 222.776 223.994 223.005 223.855 223.203C223.503 223.77 222.993 224.226 222.386 224.515C221.937 224.743 221.445 224.876 220.941 224.905C220.437 224.934 219.932 224.859 219.459 224.684C218.874 224.473 218.344 224.136 217.907 223.698C217.471 223.259 217.138 222.73 216.934 222.149C216.724 221.464 216.68 220.741 216.806 220.036C216.931 219.332 217.222 218.666 217.656 218.093C218.09 217.521 218.654 217.057 219.303 216.739C219.951 216.421 220.666 216.259 221.39 216.265C221.634 216.242 221.879 216.28 222.105 216.374C221.251 216.442 220.415 216.651 219.63 216.99C218.811 217.391 218.141 218.038 217.719 218.839C217.463 219.318 217.305 219.842 217.255 220.381C217.205 220.92 217.263 221.463 217.427 221.98C217.61 222.49 217.901 222.955 218.281 223.344C218.661 223.733 219.121 224.038 219.63 224.237C220.045 224.402 220.49 224.483 220.938 224.475C221.386 224.466 221.827 224.368 222.235 224.187C223.001 223.818 223.649 223.247 224.107 222.537Z" fill="#455A64"/>
<path d="M235.233 290.606C235.233 290.606 240.846 282.773 244.378 278.37C248.653 273.042 251.198 268.43 251.198 265.954V252.754C251.198 252.754 256.52 251.512 257.234 257.486C257.948 263.46 257.234 264.96 257.234 264.96C257.234 264.96 279.577 250.05 281.086 251.174C283.752 253.062 278.702 257.038 278.702 257.038L265.091 269.195L272.837 266.77C273.741 266.482 274.722 266.556 275.571 266.976C276.419 267.396 277.067 268.129 277.374 269.016C277.629 269.754 277.632 270.553 277.383 271.293C277.134 272.032 276.647 272.671 275.996 273.111L271.409 277.038L273.712 276.123C274.536 275.794 275.455 275.781 276.288 276.089C277.12 276.396 277.806 277.001 278.209 277.783C278.543 278.423 278.666 279.151 278.562 279.863C278.457 280.576 278.13 281.239 277.626 281.759L273.451 286.163L275.403 285.169C275.702 285.01 276.031 284.913 276.37 284.882C276.708 284.851 277.049 284.887 277.373 284.988C277.697 285.089 277.998 285.253 278.257 285.47C278.516 285.687 278.729 285.953 278.883 286.252C279.14 286.765 279.212 287.35 279.085 287.909C278.959 288.468 278.643 288.967 278.189 289.323L253.18 308.856L235.233 290.606Z" fill="#FFBE9D"/>
<path d="M253.22 308.786L252.908 308.498C252.697 308.279 252.385 307.981 251.993 307.603C251.178 306.778 249.981 305.615 248.442 304.065L235.122 290.725L235.022 290.626L235.102 290.516C236.732 288.217 238.513 285.772 240.444 283.181C241.41 281.855 242.416 280.53 243.462 279.205C244.528 277.853 245.625 276.491 246.651 275.01C247.719 273.519 248.684 271.958 249.538 270.338C250.522 268.709 251.017 266.837 250.967 264.941C250.967 261.024 250.967 256.962 250.967 252.754V252.556H251.148C252.525 252.268 253.961 252.502 255.172 253.212C255.766 253.606 256.264 254.125 256.631 254.732C256.98 255.352 257.228 256.023 257.365 256.72C257.612 258.083 257.763 259.462 257.818 260.845C257.818 261.541 257.818 262.247 257.818 262.953C257.813 263.688 257.697 264.418 257.476 265.12L257.103 264.802C260.554 262.515 264.145 260.199 267.827 257.844C269.668 256.691 271.55 255.538 273.461 254.414C275.387 253.252 277.379 252.2 279.427 251.263C279.707 251.14 279.996 251.037 280.292 250.955C280.449 250.908 280.611 250.878 280.775 250.866C280.878 250.847 280.983 250.847 281.086 250.866C281.192 250.895 281.286 250.954 281.358 251.035C281.629 251.234 281.842 251.501 281.974 251.809C282.107 252.116 282.155 252.453 282.113 252.784C281.842 253.968 281.219 255.045 280.322 255.875C279.507 256.74 278.582 257.446 277.757 258.221L275.201 260.498L265.302 269.374L265.051 268.947L269.588 267.535L271.831 266.839C272.203 266.72 272.556 266.601 272.948 266.491C273.344 266.384 273.755 266.341 274.165 266.362C274.98 266.386 275.767 266.666 276.41 267.161C277.054 267.655 277.522 268.34 277.746 269.114C277.97 269.889 277.938 270.714 277.656 271.47C277.374 272.226 276.856 272.874 276.177 273.32L271.62 277.207L271.379 276.829L273.632 275.934C274.417 275.615 275.287 275.559 276.107 275.775C276.699 275.931 277.243 276.228 277.692 276.641C278.14 277.054 278.479 277.57 278.677 278.142C278.876 278.715 278.929 279.328 278.832 279.925C278.735 280.523 278.49 281.088 278.119 281.57C277.606 282.167 277.113 282.654 276.61 283.191C275.604 284.234 274.598 285.258 273.682 286.262L273.431 285.944L275.533 284.861C275.905 284.69 276.311 284.605 276.721 284.611C277.131 284.617 277.534 284.713 277.901 284.893C278.268 285.074 278.589 285.333 278.841 285.653C279.093 285.972 279.269 286.343 279.356 286.739C279.439 287.12 279.436 287.514 279.347 287.894C279.259 288.274 279.087 288.629 278.843 288.936C278.599 289.215 278.322 289.466 278.018 289.681L277.183 290.328L275.553 291.6L272.435 294.015L262.093 301.967L255.524 307.066L253.824 308.359C253.442 308.657 253.24 308.786 253.24 308.786L253.824 308.299L255.524 306.947L262.033 301.788L272.254 293.737L275.332 291.312L276.952 290.039L277.777 289.393C278.055 289.199 278.309 288.972 278.531 288.717C278.85 288.306 279.019 287.801 279.014 287.284C279.008 286.766 278.826 286.265 278.499 285.861C278.171 285.457 277.715 285.173 277.205 285.055C276.695 284.937 276.16 284.991 275.684 285.208L273.632 286.272L272.556 286.839L273.391 285.954L276.308 282.873C276.791 282.356 277.314 281.819 277.777 281.292C278.104 280.867 278.32 280.369 278.407 279.842C278.494 279.315 278.448 278.775 278.274 278.27C278.1 277.764 277.804 277.309 277.41 276.943C277.016 276.578 276.538 276.313 276.016 276.173C275.292 275.983 274.524 276.035 273.833 276.322L271.58 277.217L270.302 277.734L271.308 276.829L275.885 272.903C276.471 272.51 276.915 271.944 277.156 271.287C277.397 270.629 277.422 269.913 277.227 269.241C277.031 268.569 276.627 267.975 276.07 267.544C275.513 267.113 274.832 266.866 274.125 266.839C273.381 266.852 272.646 267.007 271.962 267.297L269.719 268.002L265.182 269.424L264.075 269.772L264.94 268.996L274.869 260.12L277.425 257.834C278.27 257.048 279.175 256.353 279.95 255.538C280.763 254.785 281.336 253.814 281.6 252.744C281.637 252.497 281.604 252.244 281.504 252.015C281.405 251.785 281.243 251.587 281.036 251.442C280.976 251.293 280.714 251.383 280.443 251.442C280.169 251.522 279.9 251.619 279.638 251.731C277.612 252.654 275.643 253.697 273.743 254.852C271.831 255.975 269.96 257.118 268.109 258.271C264.417 260.567 260.846 262.873 257.395 265.159L256.761 265.577L257.033 264.831C257.22 264.185 257.318 263.516 257.325 262.843C257.36 262.155 257.36 261.465 257.325 260.776C257.269 259.42 257.124 258.068 256.892 256.73C256.757 256.095 256.53 255.483 256.218 254.911C255.885 254.371 255.439 253.906 254.91 253.55C253.807 252.907 252.503 252.691 251.249 252.943L251.44 252.715C251.44 256.916 251.44 260.978 251.44 264.901C251.44 265.398 251.44 265.895 251.44 266.392C251.379 266.885 251.271 267.371 251.118 267.843C250.811 268.756 250.431 269.644 249.981 270.497C249.114 272.134 248.133 273.708 247.043 275.209C246.037 276.69 244.891 278.072 243.834 279.403C242.778 280.735 241.772 282.067 240.816 283.379C238.885 285.964 237.094 288.409 235.444 290.685V290.477L248.482 303.896L251.993 307.504L252.908 308.448L253.22 308.786Z" fill="#EB996E"/>
<path d="M253.22 308.786L184.681 398.246C174.269 411.814 155.507 416.784 139.945 409.418C128.557 404.031 120.207 392.719 127.189 369.44L192.85 325.038L232.768 286.978L253.22 308.786Z" fill="#FFC107"/>
<path d="M139.945 409.379L140.679 409.746L142.832 410.87C145.668 412.13 148.691 412.933 151.785 413.245C154.023 413.446 156.276 413.406 158.505 413.126C159.777 412.969 161.04 412.747 162.288 412.46C162.942 412.321 163.586 412.102 164.3 411.923C164.982 411.744 165.654 411.529 166.312 411.277C169.205 410.272 171.97 408.938 174.551 407.301C177.472 405.502 180.081 403.25 182.277 400.631C186.955 395.164 191.794 388.922 197.025 382.262C202.256 375.602 207.689 368.376 213.483 360.822C225.052 345.693 237.698 329.014 250.906 311.44L253.009 308.647V308.975L232.557 287.107H232.909C218.936 298.508 205.999 309.382 194.279 319.074C182.559 328.765 172.066 337.294 163.193 344.232C154.32 351.17 147.097 356.587 142.067 360.215C139.562 362.054 137.591 363.406 136.273 364.35L134.764 365.404L134.241 365.742L134.734 365.364L136.222 364.271C137.52 363.277 139.472 361.925 141.957 360.076C146.987 356.398 154.129 350.961 162.972 343.983C171.815 337.005 182.287 328.467 193.987 318.736C205.687 309.004 218.604 298.13 232.567 286.719L232.758 286.57L232.919 286.739L253.381 308.607L253.532 308.766L253.401 308.945L251.299 311.748C238.08 329.302 225.424 345.991 213.835 361.1C208.031 368.654 202.518 375.831 197.287 382.491C192.055 389.151 187.227 395.413 182.478 400.84C180.25 403.477 177.608 405.742 174.652 407.55C172.046 409.192 169.253 410.527 166.332 411.526C165.674 411.776 165.002 411.992 164.32 412.172C163.646 412.351 162.992 412.559 162.308 412.708C161.05 412.991 159.777 413.204 158.495 413.345C156.249 413.623 153.978 413.649 151.725 413.424C148.613 413.088 145.578 412.249 142.741 410.939C141.796 410.442 141.092 410.035 140.619 409.776C140.146 409.518 139.945 409.379 139.945 409.379Z" fill="#263238"/>
<path d="M191.915 386.079C191.151 385.572 190.35 385.121 189.52 384.727C187.185 383.792 184.644 383.474 182.146 383.803C180.422 383.988 178.72 384.341 177.066 384.857C175.275 385.393 173.414 386.149 171.443 386.914C169.387 387.756 167.285 388.48 165.145 389.081C162.824 389.742 160.4 389.978 157.992 389.777C155.605 389.477 153.273 388.838 151.071 387.878C148.928 387.004 146.946 386 145.035 385.145C141.222 383.386 137.51 382.252 134.331 382.421C131.812 382.485 129.383 383.357 127.41 384.906C126.721 385.491 126.109 386.159 125.589 386.894C125.677 386.671 125.788 386.458 125.921 386.258C126.307 385.688 126.763 385.167 127.279 384.708C129.251 383.049 131.733 382.1 134.321 382.014C137.591 381.775 141.363 382.918 145.236 384.658C147.178 385.513 149.17 386.497 151.272 387.362C153.432 388.293 155.715 388.916 158.053 389.21C160.395 389.408 162.754 389.182 165.014 388.544C167.139 387.953 169.228 387.242 171.272 386.417C173.284 385.662 175.114 384.916 176.945 384.429C178.63 383.926 180.363 383.593 182.116 383.435C184.665 383.13 187.25 383.508 189.601 384.529C190.456 384.912 191.238 385.436 191.915 386.079Z" fill="#FAFAFA"/>
<path d="M216.139 356.1C216.369 355.54 216.458 354.933 216.401 354.331C216.241 353.526 215.881 352.772 215.355 352.137C214.828 351.502 214.151 351.006 213.383 350.693C212.311 350.246 211.195 349.913 210.053 349.699C208.712 349.436 207.406 349.022 206.16 348.466C203.379 347.037 200.892 345.109 198.826 342.781C196.562 340.405 194.55 338.039 192.398 336.21C190.55 334.542 188.351 333.3 185.959 332.572C184.331 332.082 182.61 331.966 180.929 332.234C179.752 332.443 179.148 332.731 179.128 332.682C179.108 332.632 179.269 332.592 179.561 332.463C179.988 332.276 180.433 332.133 180.889 332.036C182.59 331.69 184.35 331.755 186.019 332.225C188.491 332.914 190.77 334.155 192.679 335.853C194.966 337.923 197.132 340.12 199.168 342.433C201.193 344.711 203.62 346.607 206.331 348.029C208.846 349.262 211.522 349.361 213.503 350.365C214.313 350.717 215.02 351.267 215.556 351.962C216.093 352.657 216.442 353.476 216.572 354.341C216.624 354.812 216.551 355.288 216.36 355.723C216.31 355.861 216.235 355.989 216.139 356.1Z" fill="#FAFAFA"/>
<path d="M274.578 109.25C274.379 109.245 274.184 109.202 274.003 109.122C273.822 109.042 273.659 108.928 273.522 108.786C273.386 108.644 273.279 108.476 273.208 108.293C273.137 108.11 273.104 107.916 273.109 107.72L273.411 94.4299C273.415 94.2 273.474 93.9743 273.582 93.7707C273.691 93.5671 273.845 93.3912 274.034 93.257C274.225 93.1238 274.443 93.0357 274.674 92.9995C274.904 92.9633 275.14 92.98 275.362 93.0483C276.618 93.4092 277.935 93.5125 279.233 93.3518C280.53 93.1911 281.781 92.7698 282.907 92.1139C283.954 91.5487 284.873 90.7785 285.608 89.8505C286.343 88.9225 286.879 87.8561 287.183 86.7165C287.421 85.5586 287.421 84.3651 287.183 83.2072C286.944 82.0493 286.472 80.9508 285.795 79.9771C285.102 78.8854 284.194 77.9431 283.124 77.2069C282.054 76.4707 280.844 75.9558 279.567 75.693C274.628 74.7885 269.216 78.0388 267.495 82.9492C267.362 83.3236 267.084 83.6302 266.721 83.8017C266.359 83.9732 265.943 83.9955 265.564 83.8637C265.185 83.7319 264.875 83.4568 264.701 83.0988C264.528 82.7409 264.505 82.3296 264.638 81.9552C266.831 75.7129 273.773 71.5779 280.121 72.7408C281.797 73.0795 283.387 73.7487 284.796 74.7086C286.205 75.6684 287.403 76.8991 288.32 78.3271C289.257 79.6218 289.902 81.0996 290.213 82.6613C290.525 84.223 290.494 85.8324 290.123 87.3813C289.752 88.9302 289.05 90.3828 288.064 91.6415C287.078 92.9001 285.831 93.9356 284.406 94.6784C281.975 96.0742 279.147 96.6401 276.358 96.2887L276.067 107.759C276.067 108.151 275.91 108.528 275.632 108.807C275.353 109.086 274.974 109.245 274.578 109.25Z" fill="#263238"/>
<path d="M276.912 115.811C276.912 116.244 276.781 116.667 276.538 117.027C276.294 117.387 275.948 117.667 275.543 117.832C275.138 117.997 274.692 118.04 274.263 117.955C273.833 117.87 273.439 117.66 273.13 117.354C272.821 117.047 272.611 116.656 272.526 116.231C272.442 115.806 272.487 115.366 272.657 114.967C272.826 114.568 273.111 114.227 273.476 113.988C273.841 113.749 274.27 113.622 274.708 113.624C274.999 113.624 275.286 113.681 275.554 113.791C275.822 113.901 276.065 114.062 276.27 114.265C276.475 114.468 276.637 114.709 276.747 114.975C276.857 115.24 276.913 115.524 276.912 115.811Z" fill="#263238"/>
<path d="M109.453 262.237C107.195 262.26 104.99 261.563 103.165 260.249C102.098 259.43 101.208 258.408 100.546 257.244C99.8845 256.08 99.465 254.797 99.3123 253.47C99.1151 252.218 99.1891 250.94 99.5294 249.719C99.8697 248.497 100.469 247.361 101.287 246.386C102.104 245.411 103.123 244.618 104.274 244.061C105.425 243.503 106.683 243.194 107.964 243.152C110.056 243.019 112.139 243.526 113.929 244.604L117.953 237.158C118.046 236.985 118.172 236.831 118.325 236.706C118.478 236.58 118.654 236.486 118.843 236.427C119.033 236.369 119.232 236.349 119.43 236.367C119.628 236.385 119.82 236.441 119.996 236.532C120.171 236.624 120.327 236.748 120.454 236.899C120.581 237.05 120.677 237.224 120.736 237.411C120.794 237.599 120.815 237.796 120.797 237.991C120.779 238.187 120.722 238.376 120.629 238.55L115.77 247.506C115.66 247.709 115.503 247.885 115.313 248.02C115.123 248.154 114.905 248.244 114.674 248.281C114.444 248.32 114.209 248.304 113.987 248.235C113.764 248.166 113.562 248.045 113.396 247.884C112.69 247.248 111.861 246.76 110.958 246.451C110.055 246.141 109.098 246.017 108.145 246.085C107.279 246.119 106.429 246.326 105.648 246.696C104.866 247.065 104.168 247.587 103.598 248.232C103.067 248.913 102.679 249.692 102.458 250.523C102.237 251.355 102.186 252.221 102.31 253.072C102.404 254.008 102.689 254.914 103.147 255.738C103.605 256.561 104.227 257.284 104.976 257.864C106.547 258.894 108.425 259.368 110.303 259.207C112.182 259.047 113.95 258.261 115.318 256.979C115.606 256.718 115.986 256.577 116.377 256.587C116.769 256.598 117.14 256.758 117.415 257.034C117.689 257.31 117.843 257.68 117.846 258.067C117.849 258.453 117.7 258.826 117.43 259.106C115.284 261.134 112.423 262.257 109.453 262.237Z" fill="#263238"/>
<path d="M120.408 231.493C120.556 231.197 120.79 230.951 121.08 230.786C121.37 230.621 121.702 230.545 122.036 230.567C122.369 230.589 122.689 230.708 122.954 230.91C123.219 231.111 123.417 231.386 123.524 231.699C123.631 232.011 123.642 232.349 123.555 232.668C123.468 232.987 123.287 233.273 123.035 233.49C122.784 233.708 122.472 233.846 122.141 233.889C121.809 233.931 121.472 233.876 121.173 233.729C120.771 233.533 120.465 233.187 120.322 232.767C120.179 232.348 120.21 231.889 120.408 231.493Z" fill="#263238"/>
<path d="M165.936 140.502L144.891 150.481L143.5 147.547L148.479 130.866C148.925 129.375 149.272 128.076 149.521 126.967C149.77 125.858 149.922 124.868 149.976 123.995C150.038 123.137 150.007 122.369 149.882 121.689C149.751 120.995 149.532 120.324 149.226 119.677C148.849 118.883 148.364 118.203 147.772 117.637C147.187 117.05 146.53 116.614 145.801 116.329C145.057 116.051 144.262 115.933 143.417 115.973C142.579 115.992 141.719 116.211 140.837 116.629C139.763 117.139 138.902 117.736 138.255 118.421C137.622 119.1 137.18 119.84 136.931 120.643C136.673 121.468 136.604 122.347 136.723 123.282C136.856 124.209 137.16 125.173 137.634 126.173L133.531 128.118C132.889 126.765 132.522 125.382 132.427 123.967C132.326 122.538 132.511 121.162 132.983 119.84C133.44 118.524 134.183 117.299 135.211 116.163C136.254 115.019 137.6 114.057 139.247 113.276C140.761 112.558 142.23 112.141 143.652 112.025C145.082 111.888 146.404 112.017 147.619 112.414C148.834 112.81 149.92 113.448 150.877 114.327C151.849 115.199 152.638 116.275 153.245 117.555C153.698 118.511 153.986 119.536 154.109 120.631C154.225 121.71 154.227 122.835 154.115 124.005C153.989 125.182 153.77 126.393 153.46 127.639C153.158 128.863 152.812 130.108 152.421 131.374L148.231 144.817L164.357 137.171L165.936 140.502Z" fill="#263238"/>
<path d="M380.546 299.015C380.418 300.196 380.085 301.285 379.549 302.28C379.015 303.259 378.322 304.101 377.47 304.805C377.062 305.142 376.616 305.451 376.132 305.732C375.647 306.013 375.133 306.259 374.59 306.469C375.461 306.944 376.233 307.507 376.907 308.16C377.598 308.798 378.176 309.515 378.64 310.311C379.087 311.106 379.407 311.954 379.6 312.855C379.808 313.757 379.866 314.703 379.772 315.691C379.619 317.295 379.184 318.693 378.466 319.883C377.764 321.076 376.871 322.045 375.787 322.793C374.684 323.554 373.431 324.098 372.027 324.422C370.624 324.73 369.145 324.81 367.59 324.663C366.002 324.512 364.54 324.152 363.204 323.584C361.885 323.017 360.763 322.257 359.84 321.303C358.9 320.363 358.197 319.242 357.732 317.939C357.267 316.636 357.112 315.174 357.266 313.554C357.359 312.565 357.586 311.647 357.944 310.798C358.304 309.933 358.779 309.152 359.368 308.456C359.956 307.776 360.642 307.179 361.427 306.665C362.211 306.151 363.076 305.743 364.02 305.44C363.279 304.978 362.618 304.449 362.037 303.854C361.457 303.243 360.981 302.577 360.608 301.855C360.234 301.149 359.963 300.387 359.795 299.57C359.628 298.753 359.585 297.907 359.668 297.032C359.815 295.493 360.204 294.148 360.836 292.999C361.47 291.833 362.288 290.88 363.29 290.142C364.276 289.401 365.422 288.873 366.727 288.555C368.049 288.239 369.463 288.153 370.97 288.296C372.461 288.437 373.825 288.788 375.064 289.347C376.302 289.906 377.352 290.643 378.213 291.559C379.075 292.474 379.715 293.565 380.134 294.831C380.555 296.081 380.692 297.476 380.546 299.015ZM375.285 315.167C375.379 314.179 375.295 313.255 375.033 312.396C374.787 311.539 374.393 310.782 373.851 310.126C373.306 309.486 372.628 308.964 371.817 308.56C371.021 308.157 370.129 307.909 369.141 307.815C368.12 307.718 367.181 307.792 366.324 308.038C365.467 308.283 364.719 308.67 364.08 309.198C363.44 309.742 362.918 310.412 362.516 311.208C362.13 312.005 361.889 312.898 361.796 313.886C361.699 314.907 361.766 315.837 361.996 316.676C362.245 317.501 362.635 318.216 363.166 318.823C363.697 319.429 364.362 319.917 365.16 320.287C365.975 320.659 366.901 320.894 367.938 320.993C368.927 321.087 369.848 321.027 370.702 320.814C371.556 320.601 372.309 320.247 372.961 319.753C373.596 319.257 374.114 318.628 374.513 317.865C374.931 317.087 375.188 316.188 375.285 315.167ZM376.019 298.659C376.103 297.767 376.027 296.934 375.79 296.16C375.569 295.387 375.226 294.7 374.759 294.1C374.275 293.515 373.683 293.041 372.981 292.681C372.281 292.303 371.494 292.073 370.619 291.99C369.744 291.907 368.936 291.978 368.196 292.202C367.457 292.409 366.802 292.756 366.233 293.241C365.664 293.727 365.197 294.336 364.833 295.07C364.487 295.789 364.27 296.611 364.182 297.534C364.095 298.458 364.153 299.306 364.358 300.077C364.58 300.834 364.934 301.497 365.419 302.066C365.887 302.65 366.464 303.122 367.149 303.481C367.852 303.826 368.641 304.04 369.516 304.123C370.375 304.204 371.182 304.142 371.937 303.936C372.694 303.714 373.365 303.36 373.95 302.876C374.518 302.407 374.983 301.814 375.346 301.096C375.708 300.378 375.932 299.566 376.019 298.659Z" fill="#263238"/>
<path d="M390.151 149.53L394.646 151.618L393.093 154.961L388.598 152.874L385.122 160.358L381.026 158.455L384.502 150.971L369.799 144.142L370.92 141.729L395.734 126.093L400.096 128.119L390.151 149.53ZM375.892 142.907L386.055 147.628L393.47 131.663L392.23 132.594L375.892 142.907Z" fill="#263238"/>
<path d="M414.009 237.149C413.77 237.151 413.533 237.096 413.319 236.989C413.105 236.882 412.921 236.725 412.782 236.532L406.746 228.282C406.607 228.096 406.515 227.88 406.477 227.652C406.438 227.424 406.455 227.191 406.525 226.97C406.59 226.744 406.707 226.537 406.868 226.364C407.029 226.192 407.228 226.059 407.45 225.976C408.347 225.646 409.166 225.137 409.855 224.48C410.544 223.823 411.088 223.033 411.454 222.159C411.811 221.38 412.001 220.537 412.013 219.681C412.025 218.826 411.859 217.978 411.524 217.189C411.147 216.413 410.615 215.721 409.96 215.153C409.305 214.586 408.54 214.156 407.712 213.889C406.82 213.56 405.871 213.412 404.921 213.453C403.97 213.494 403.038 213.723 402.179 214.128C400.55 215.057 399.287 216.505 398.597 218.234C397.906 219.963 397.828 221.872 398.376 223.65C398.501 224.026 398.471 224.435 398.29 224.789C398.11 225.142 397.795 225.41 397.415 225.534C397.035 225.658 396.621 225.627 396.263 225.449C395.906 225.271 395.634 224.96 395.509 224.585C394.726 222.127 394.823 219.477 395.785 217.082C396.747 214.687 398.515 212.692 400.79 211.434C402.015 210.85 403.347 210.516 404.705 210.451C406.064 210.386 407.421 210.592 408.698 211.056C409.91 211.458 411.027 212.097 411.983 212.936C412.939 213.774 413.714 214.795 414.261 215.937C414.768 217.098 415.03 218.35 415.03 219.615C415.03 220.879 414.768 222.131 414.261 223.292C413.451 225.2 412.071 226.82 410.307 227.934L415.337 234.753C415.454 234.912 415.538 235.092 415.584 235.284C415.63 235.475 415.637 235.673 415.605 235.867C415.574 236.061 415.503 236.247 415.399 236.414C415.294 236.581 415.157 236.726 414.995 236.841C414.714 237.056 414.365 237.166 414.009 237.149Z" fill="#263238"/>
<path d="M419.22 239.495C419.422 239.758 419.54 240.074 419.56 240.403C419.58 240.732 419.501 241.06 419.332 241.345C419.164 241.63 418.914 241.859 418.614 242.004C418.314 242.148 417.977 242.202 417.646 242.158C417.315 242.113 417.005 241.973 416.755 241.755C416.504 241.536 416.325 241.25 416.239 240.931C416.154 240.612 416.166 240.275 416.274 239.963C416.382 239.651 416.581 239.377 416.846 239.177C417.204 238.909 417.655 238.793 418.1 238.852C418.544 238.912 418.947 239.143 419.22 239.495Z" fill="#263238"/>
</svg>
